<svg height="231" viewBox="0 0 277 231" width="277" xmlns="http://www.w3.org/2000/svg" xmlns:xlink="http://www.w3.org/1999/xlink"><linearGradient id="a"><stop offset="0" stop-color="#ffe473"/><stop offset=".1814" stop-color="#ffde73"/><stop offset=".4189" stop-color="#ffce73"/><stop offset=".6874" stop-color="#ffb373"/><stop offset=".9768" stop-color="#ff8d73"/><stop offset="1" stop-color="#ff8a73"/></linearGradient><linearGradient id="b" x1="49.996083%" x2="49.996083%" xlink:href="#a" y1="-.047654%" y2="99.936656%"/><linearGradient id="c" x1=".020661%" x2="99.938017%" xlink:href="#a" y1="50.156595%" y2="50.156595%"/><linearGradient id="d" x1="-.12605%" x2="99.831933%" xlink:href="#a" y1="49.68%" y2="49.68%"/><linearGradient id="e" x1="-.636364%" x2="100%" xlink:href="#a" y1="49.590909%" y2="49.590909%"/><linearGradient id="f" x1=".255242%" x2="100.067902%" xlink:href="#a" y1="50.030303%" y2="50.030303%"/><g fill="none" fill-rule="evenodd"><g fill-rule="nonzero" transform="translate(21 63)"><path d="m211 159c.9 1.8 1.3 3.9 1.3 6h-70v-14h10 46c5.6 0 10.5 3.2 12.7 8z" fill="#fff7f5"/><path d="m197.3 63c2.8 0 5 2.2 5 5 0 1.4-.6 2.6-1.5 3.5s-2.1 1.5-3.5 1.5h-7-20-13c-2.8 0-5 2.2-5 5v73h-10v-53.2-24.8c0-5.5 4.5-10 10-10h18 20z" fill="#fff7f5"/><path d="m195.3 48v2c0 2.2-1.8 4-4 4h-1-20-1c-2.2 0-4-1.8-4-4v-2c0-2.2 1.8-4 4-4h22c2.2 0 4 1.8 4 4z" fill="#f3fcff"/><path d="m190.3 95v28c0 2.8-1.1 5.3-2.9 7.1s-4.3 2.9-7.1 2.9c-5.5 0-10-4.5-10-10v-28z" fill="#ffeef4"/><path d="m190.3 73v22h-20v-22z" fill="#f3fcff"/><path d="m170.3 54h20v9h-20z" fill="#f3fcff"/><circle cx="184.9" cy="3.8" fill="#ffeef4" r="3"/><path d="m174.9 18.8c1.1 0 2 .9 2 2s-.9 2-2 2-2-.9-2-2 .9-2 2-2z" fill="#ffeef4"/><path d="m120.9 95s1.2 6.4 0 23.7c-2.8 31.3-18.6 45-18.6 45h-32.8c-1 .5-2 .9-3.1 1.3h-27.1c-22.5-8.7-38.4-30.5-38.4-56 0-4.8.6-9.5 1.6-14zm-71.1 49.4c0-1.1-.9-2-2-2s-2 .9-2 2 .9 2 2 2 2-.9 2-2zm-24-35c0-1.7-1.3-3-3-3s-3 1.3-3 3c0 1.6 1.3 3 3 3s3-1.3 3-3z" fill="#e7f2ff"/><g fill="#f3fcff"><path d="m102.3 65.6 12 13.6 4.9 15.8h-116.6c5.1-21.6 21.9-38.6 43.4-44.1v-13.9h3.9l.8 3.7c.4 1.9 2 3.2 3.9 3.2h6.4 6.4c1.9 0 3.6-1.4 3.9-3.2l.8-3.7h3.9v13.9c10 2.6 19 7.7 26.3 14.7z"/><path d="m85.9 23v8c0 3.3-2.7 6-6 6h-4-3.9-22.2-3.9-4c-3.3 0-6-2.7-6-6v-8c0-3.3 2.7-6 6-6h3.9 30.2 3.9c3.3 0 6 2.7 6 6z"/><path d="m71.6 2.4c3.8 0 6.6 3.5 5.9 7.2l-1.5 7.4h-30.2l-1.5-7.4c-.8-3.7 2.1-7.2 5.9-7.2z"/><path d="m72 37-.8 3.7c-.4 1.9-2 3.2-3.9 3.2h-6.4-6.4c-1.9 0-3.6-1.4-3.9-3.2l-.8-3.7z"/></g><path d="m47.8 142.4c1.1 0 2 .9 2 2s-.9 2-2 2-2-.9-2-2 .8-2 2-2z" fill="#e7f2ff"/><path d="m22.8 106.4c1.7 0 3 1.3 3 3 0 1.6-1.3 3-3 3s-3-1.4-3-3 1.3-3 3-3z" fill="#e7f2ff"/><path d="m112.7 83.5c1.9 0 1.9-3 0-3-2 0-2 3 0 3z" fill="#fff"/></g><g fill-rule="nonzero" transform="translate(57 65)"><path d="m24.5 20.1h25.3v-4.8h-23.7c.6-.2 1.2-.3 1.8-.3h-14c-.6 0-1.2.1-1.8.3h-11.2v4.8h5.6c.8 0 1.4.6 1.4 1.4v7.5c0 3.3 2.7 6 6 6h14c-3.3 0-6-2.7-6-6v-6.3c0-1.5 1.2-2.6 2.6-2.6z" fill="#fff"/><path d="m39.9 4.8v-3.8h-12.2c.8-.4 1.6-.6 2.6-.6h-10c-.9 0-1.8.2-2.6.6h-8.3v3.8h3c1 0 1.8.8 1.9 1.8 0 .3 0 .7.1 1l1.5 7.4h10l-1.5-7.4c-.3-1.4.9-2.8 2.4-2.8z" fill="#fff"/><path d="m9.4 33.8h31.6v6.6h-31.6z" fill="#000" opacity=".05"/><path d="m105.3 148v-53.2-24.8c0-5.5 4.5-10 10-10h45c2.8 0 5 2.2 5 5-.1 0-.2 0-.2 0h-48.8c-3.3 0-6 2.7-6 6v28.8 48.2z" fill="#fff" opacity=".5"/><path d="m132.8 71h22.2v4.7h-22.2z" fill="#000" opacity=".06"/><path d="m134.3 52.5h20.7v3.4h-20.7z" fill="#000" opacity=".05"/><g fill="#fff"><path d="m145 45.4h13.1v-2.3h-13.5c.7-.7 1.7-1.1 2.8-1.1h-8c-1.1 0-2 .4-2.8 1.1h-6.9v2.3h4.1c.9 0 1.5.7 1.5 1.5v1c0 2.2 1.8 4 4 4h8c-2.2 0-4-1.8-4-4v-.7c0-.9.8-1.7 1.7-1.8z"/><path d="m139.1 55.9h6v4.6h-6z"/><path d="m172.9 153.8h-40.1v-4.8h32.5z" opacity=".5"/></g></g><g stroke="#d3d5e6" stroke-linecap="round" stroke-linejoin="round" transform="translate(21 63)"><path d="m142.3 151h56c7.7 0 14 6.3 14 14h-70v-67.2-24.8c0-5.5 4.5-10 10-10h45c2.8 0 5 2.2 5 5 0 1.4-.6 2.6-1.5 3.5s-2.2 1.5-3.5 1.5h-40c-2.8 0-5 2.2-5 5v73" stroke-width="4"/><path d="m170.3 73v50c0 5.5 4.5 10 10 10 5.5 0 10-4.5 10-10v-50" stroke-width="4"/><path d="m190.3 63v-9" stroke-width="4"/><path d="m170.3 54v9" stroke-width="4"/><path d="m169.3 54h22c2.2 0 4-1.8 4-4v-2c0-2.2-1.8-4-4-4h-22c-2.2 0-4 1.8-4 4v2c0 2.2 1.8 4 4 4z" stroke-width="4"/><circle cx="174.9" cy="20.8" r="2" stroke-width="2"/><circle cx="184.9" cy="3.8" r="3" stroke-width="2"/><g stroke-width="4"><path d="m45.9 37v13.9"/><path d="m75.9 37v13.9"/><path d="m41.9 37h38c3.3 0 6-2.7 6-6v-8c0-3.3-2.7-6-6-6h-38c-3.3 0-6 2.7-6 6v8c0 3.3 2.7 6 6 6z"/><path d="m119.3 95h-116.7"/><path d="m45.8 17-1.5-7.4c-.8-3.7 2.1-7.2 5.9-7.2h21.4c3.8 0 6.6 3.5 5.9 7.2l-1.5 7.4"/><path d="m49.8 37 .8 3.7c.4 1.9 2 3.2 3.9 3.2h6.4 6.4c1.9 0 3.5-1.4 3.9-3.2l.8-3.7"/></g><path d="m80.8 66 10.7 10.8" stroke-width="2"/><path d="m79.2 70.4 8 8" stroke-width="2"/><circle cx="22.8" cy="109.4" r="3" stroke-width="2"/><circle cx="47.8" cy="144.4" r="2" stroke-width="2"/><path d="m190.3 95h-20" stroke-width="4"/><path d="m211 159h-30.7" stroke-width="2"/><path d="m173.3 159h-7.6" stroke-width="2"/><path d="m82.5 165c22.5-8.7 38.4-30.5 38.4-56 0-33.1-26.9-60-60-60s-60 26.9-60 60c0 25.5 15.9 47.3 38.4 56" stroke-width="4"/><path d="m82.5 165h-43.2" stroke-width="4"/></g><g fill="#fff" fill-rule="nonzero" opacity=".5" transform="translate(27 119)"><ellipse cx="27.0434" cy="28.0419" rx="25.000177" ry="13.000092" transform="matrix(.64969541 -.76019463 .76019463 .64969541 -11.843875 30.381454)"/><circle cx="7.5" cy="54.5" r="3.5"/><path d="m175.1 21.6h-6v45.6c0 1.7 1.3 3 3 3 1.7 0 3-1.3 3-3z"/></g><g transform="translate(79 2)"><g transform="translate(0 178)"><path d="m109.5 20.3c7.6 12-1 27.7-15.2 27.7h-75.9c-2.4 0-4.7-.5-6.8-1.3-9.9-4-14.7-16.4-8.4-26.4l7.4-11.6c0-.1.1-.1.1-.2 11.2-16.1 27.1-3.9 46 5 14.7 6.9 31.1 11.9 48.4-.1z" fill="url(#b)" fill-rule="nonzero"/><path d="m109.5 20.3c7.6 12-1 27.7-15.2 27.7h-75.9c-2.4 0-4.7-.5-6.8-1.3-9.9-4-14.7-16.4-8.4-26.4l7.4-11.6c0-.1.1-.1.1-.2 11.2-16.1 27.1-3.9 46 5 14.7 6.9 31.1 11.9 48.4-.1z" stroke="#000" stroke-linecap="round" stroke-linejoin="round" stroke-width=".5"/></g><g fill-rule="nonzero"><path d="m43.8 5 5.3 8.3c-17.3 12-33.7 7.1-48.4.1 17.3-8.1 32.1-19 43.1-8.4z" fill="url(#c)" transform="translate(56 178)"/><path d="m61.2 25 28.6 45c-10.9-10.6-25.8.3-43.1 8.5-18.9-8.9-34.8-21.1-46-5l30.8-48.5c1.8-2.9 2.8-6.2 2.8-9.7v-14.8h24v14.8c.1 3.5 1 6.9 2.9 9.7z" fill="#fff" opacity=".65" transform="translate(10 113)"/><g fill="#19d2ff" transform="translate(80)"><path d="m36.8 3.2c3.1 3.1 3.1 8.2 0 11.3l-18.4 18.4-3.3-3.3-4.7-4.7-3.4-3.4 18.4-18.4c1.6-1.6 3.6-2.4 5.6-2.4 2.2.2 4.3.9 5.8 2.5z"/><path d="m18.4 32.9c1.6 1.6 1.6 4.1 0 5.6-.8.8-1.8 1.2-2.8 1.2s-2-.4-2.8-1.2l-11.3-11.3c-1.6-1.6-1.6-4.1 0-5.7.8-.8 1.8-1.2 2.8-1.2s2 .4 2.8 1.2l3.4 3.4 4.7 4.7z"/></g><path d="m34.8 11.5-11.3 11.4h-22.7l22.7-22.7z" fill="#ecf7ff" transform="translate(58 27)"/><path d="m36.3 6.6v4c0 3.3-2.7 6-6 6h-24c-3.3 0-6-2.7-6-6v-4c0-3.3 2.7-6 6-6h24c3.3 0 6 2.7 6 6z" fill="#ecf7ff" transform="translate(38 97)"/><g transform="translate(50 49)"><path d="m31.5.9-11.3 11.3c-1.6 1.6-4.1 1.6-5.6 0l-5.7-5.7c-1.6-1.6-1.6-4.1 0-5.6z" fill="url(#d)"/><path d="m14.5 12.2-4.2 4.2c-1.6 1.6-4.1 1.6-5.6 0-.8-.8-1.2-1.8-1.2-2.8s.4-2 1.2-2.8l4.2-4.2z" fill="url(#e)"/><path d="m4.6 16.4c13.4 22-13.4 22 0 0z" fill="url(#f)"/></g><path d="m18.4 226h-9.9c1-.4 2.1-.8 3.1-1.3 2 .8 4.3 1.3 6.8 1.3z" fill="#19d2ff"/></g></g><g fill-rule="nonzero" transform="translate(117 6)"><path d="m16.3 103.6v-4c0-.8.7-1.4 1.4-1.4h18.4l-3.9-4.3h-12c.6-.2 1.3-.3 1.9-.3h-9.9c-.7 0-1.4.1-2 .3h-7.8l-2.2 4.3h4.5c.8 0 1.4.6 1.5 1.4v4c0 3.3 2.7 6 6 6h10c-3.2 0-5.9-2.7-5.9-6z" fill="#fff"/><path d="m5.8 110.1h24.9v4.8h-24.9z" fill="#000" opacity=".1"/><path d="m19.7 188c23.2-17.8 42.9-16.3 47.4-.6-19.1 17.1-47.4.6-47.4.6z" fill="#000" opacity="0"/><g fill="#fff"><path d="m12.8 71.3c-.5 5.1 6.1 3.9 3.9-6.8-3.1 2.1-3.9 6.8-3.9 6.8z" opacity=".65"/><path d="m16.6 60.6 6.8-6.5-4-3.2-4.3 6.2z" opacity=".65"/><g opacity=".35" transform="translate(45)"><path d="m11.1 24.6c-.8-.8-1.8-1.2-2.8-1.2s-2 .4-2.8 1.2c-1.6 1.6-1.6 4.1 0 5.7l-4-4c-1.6-1.6-1.6-4.1 0-5.7.8-.8 1.8-1.2 2.8-1.2s2 .4 2.8 1.2z"/><path d="m10.3 22.4 18.6-18.6c.8-.8.8-2 0-2.8-.8-.8-2-.8-2.8 0l-18.6 18.6z"/></g></g></g><g stroke="#484d78" stroke-linecap="round" stroke-linejoin="round" transform="translate(-5 2)"><g stroke-width="4"><path d="m260.3 226h-253"/><path d="m279.3 226h-12"/><path d="m128.3 113.6h24c3.3 0 6-2.7 6-6v-4c0-3.3-2.7-6-6-6h-24c-3.3 0-6 2.7-6 6v4c0 3.3 2.7 6 6 6z"/><path d="m128.3 113.6v14.8c0 3.4-1 6.8-2.8 9.7l-38.3 60.3c-7.6 12 1 27.7 15.2 27.7"/><path d="m178.3 226c14.2 0 22.8-15.7 15.2-27.7l-38.3-60.3c-1.8-2.9-2.8-6.2-2.8-9.7v-14.8"/><path d="m95.6 224.7c-1 .5-2 .9-3.1 1.3"/><path d="m189.1 191.4c-39.7 27.6-74.9-34.4-94.7-4.3"/><path d="m183.8 183c-11-10.6-25.8.3-43.1 8.5"/></g><g transform="translate(134)"><g stroke-width="4"><path d="m42.8 38.6-11.3-11.3c-1.6-1.6-1.6-4.1 0-5.7 1.6-1.6 4.1-1.6 5.7 0l11.3 11.3c1.6 1.6 1.6 4.1 0 5.7-1.6 1.5-4.2 1.5-5.7 0z"/><path d="m48.4 32.9 18.4-18.4c3.1-3.1 3.1-8.2 0-11.3-3.1-3.1-8.2-3.1-11.3 0l-18.4 18.4"/><path d="m42.8 38.6-22.6 22.6c-1.6 1.6-4.1 1.6-5.7 0l-5.7-5.7c-1.6-1.6-1.6-4.1 0-5.7l22.6-22.6"/><path d="m14.5 61.2-4.2 4.2c-1.6 1.6-4.1 1.6-5.7 0-1.6-1.6-1.6-4.1 0-5.7l4.2-4.2"/><path d="m4.6 65.4c-13.4 22 13.4 22 0 0"/><path d="m8.8 49.9h22.7"/></g><path d="m51.2 23.6-6 6" stroke-width="2"/><path d="m40.5 25 2.5-2.5" stroke-width="2"/></g></g><g fill="#fff" fill-rule="nonzero" transform="translate(89 33)"><path d="m29.5 123.5-27.8 42.8c-2.6 4 .3 9.3 5 9.3h15.7c5.3 0 9.9-3.6 11.1-8.8l8.9-37.1c.6-2.4-.3-4.8-2.3-6.2l-2.1-1.5c-2.7-2.1-6.6-1.4-8.5 1.5z" opacity=".5"/><path d="m72.7.3-18.7 18.6c-.8.8-.8 2 0 2.8.8.8 2 .8 2.8 0l18.6-18.6z" opacity=".65"/><circle cx="39.5" cy="114" opacity=".65" r="3.4"/></g></g></svg>