<svg height="238" viewBox="0 0 324 238" width="324" xmlns="http://www.w3.org/2000/svg" xmlns:xlink="http://www.w3.org/1999/xlink"><linearGradient id="a"><stop offset="0" stop-color="#ffe473"/><stop offset=".1814" stop-color="#ffde73"/><stop offset=".4189" stop-color="#ffce73"/><stop offset=".6874" stop-color="#ffb373"/><stop offset=".9768" stop-color="#ff8d73"/><stop offset="1" stop-color="#ff8a73"/></linearGradient><linearGradient id="b" x1="0%" x2="100%" xlink:href="#a" y1="49.988789%" y2="49.988789%"/><linearGradient id="c" x1="-2.112706%" x2="100%" xlink:href="#a" y1="51.818182%" y2="51.818182%"/><linearGradient id="d" x1="0%" x2="100%" xlink:href="#a" y1="49.974693%" y2="49.974693%"/><linearGradient id="e" x1="0%" x2="100%" xlink:href="#a" y1="49.99031%" y2="49.99031%"/><linearGradient id="f" x1="1.041667%" x2="100%" xlink:href="#a" y1="49.270833%" y2="49.270833%"/><linearGradient id="g" x1=".263158%" x2="101.315789%" xlink:href="#a" y1="49.736842%" y2="49.736842%"/><g fill="none" fill-rule="evenodd"><g fill-rule="nonzero" transform="translate(33 73)"><path d="m243.7 111c-2.4.6-4.8 1.2-7.4 1.5-8.7 1.3-18.2.8-27-2.4-1.1-.4-2.3-.8-3.4-1.2 19.9-14.9 43.2-12.9 54.7-10.1.3 1.1.5 2.2.7 3.4-4.1 3.7-10.2 6.8-17.3 8.8-.2-.1-.2 0-.3 0z" fill="#e7f2ff"/><path d="m246.9 116.2c.3 0 .6.3.6.6s-.3.6-.6.6-.6-.3-.6-.6c-.1-.3.2-.6.6-.6z" fill="#a4b2ea"/><path d="m192.6 57.4c4.4-1.1 9.1-1.8 13.9-1.8s9.4.6 13.9 1.8c20 5.1 35.6 21.1 40.2 41.3-11.4-2.8-34.8-4.8-54.7 10.1-22.2-7.6-36.4-7.6-54.9-.6 1.3-24.5 18.6-44.8 41.6-50.8z" fill="#f3fcff"/><path d="m244.1 138.9c.8 0 1.4.6 1.4 1.4s-.6 1.4-1.4 1.4-1.4-.6-1.4-1.4.6-1.4 1.4-1.4z" fill="#e7f2ff"/><path d="m240.2 147.3c.3 0 .6.3.6.6 0 .4-.3.6-.6.6s-.6-.3-.6-.6.3-.6.6-.6z" fill="#a4b2ea"/><path d="m239.6 129.8c.3 0 .5.2.5.5s-.2.5-.5.5-.5-.2-.5-.5.2-.5.5-.5z" fill="#a4b2ea"/><path d="m240.2 116.5c-2.1 0-3.9-1.7-3.9-3.9v-.1-.1c2.5-.4 5-.9 7.4-1.5.3.5.4 1.1.4 1.7 0 2.2-1.7 3.9-3.9 3.9z" fill="#e7f2ff"/><path d="m236.3 112.6c0 2.1 1.7 3.9 3.9 3.9 2.1 0 3.9-1.7 3.9-3.9 0-.6-.1-1.2-.4-1.7.1 0 .1 0 .2-.1 7.1-2 13.2-5.1 17.3-8.8.5 2.9.7 6 .7 9.1 0 23.6-14.7 43.8-35.5 51.8h-39.9c-20.8-8-35.5-28.2-35.5-51.8 0-1 0-1.9.1-2.9 18.5-7 32.7-7 54.9.6 1.1.4 2.2.8 3.4 1.2 8.8 3.2 18.3 3.7 27 2.4zm11.2 4.2c0-.3-.3-.6-.6-.6s-.6.3-.6.6.3.6.6.6.6-.3.6-.6zm-2 23.5c0-.8-.6-1.4-1.4-1.4s-1.4.6-1.4 1.4.6 1.4 1.4 1.4 1.4-.6 1.4-1.4zm-4.7 7.6c0-.3-.3-.6-.6-.6s-.6.3-.6.6c0 .4.3.6.6.6.4.1.6-.2.6-.6zm-.7-17.6c0-.3-.2-.5-.5-.5s-.5.2-.5.5.2.5.5.5.5-.2.5-.5zm-13 0c0-1.4-1.2-2.6-2.6-2.6s-2.6 1.2-2.6 2.6 1.2 2.6 2.6 2.6c1.5 0 2.6-1.2 2.6-2.6zm-2 8.2c0-.3-.2-.5-.5-.5s-.5.2-.5.5.2.5.5.5c.3.1.5-.1.5-.5zm-57.1.6c0-1.1-.9-2-2-2s-2 .9-2 2 .9 2 2 2 2-.9 2-2zm-5.5-10.6c0-.3-.2-.5-.5-.5s-.5.2-.5.5.2.5.5.5.5-.2.5-.5z" fill="#e7f2ff"/><path d="m229.6 32.1v6.5c0 3.3-2.7 6-6 6h-3.2-3.6-20.5-3.6-3.2c-3.3 0-6-2.7-6-6v-6.5c0-3.3 2.7-6 6-6h3.2 27.9 3.2c3.1 0 5.8 2.7 5.8 6z" fill="#f3fcff"/><path d="m224.6 127.7c1.4 0 2.6 1.2 2.6 2.6s-1.2 2.6-2.6 2.6-2.6-1.2-2.6-2.6 1.1-2.6 2.6-2.6z" fill="#e7f2ff"/><path d="m224.6 138c.3 0 .5.2.5.5s-.2.5-.5.5-.5-.2-.5-.5c-.1-.2.2-.5.5-.5z" fill="#a4b2ea"/><path d="m216.4 12.6c3.5 0 6.1 3.2 5.4 6.6l-1.4 6.8h-27.9l-1.4-6.8c-.7-3.4 1.9-6.6 5.4-6.6z" fill="#e7f2ff"/><path d="m220.4 44.6v12.9c-4.4-1.1-9.1-1.8-13.9-1.8s-9.4.6-13.9 1.8v-11.9-1h3.6l.7 3.5c.4 1.7 1.9 3 3.6 3h5.9 5.9c1.8 0 3.3-1.2 3.6-3l.7-3.5z" fill="#f3fcff"/><path d="m216.8 44.6-.8 3.4c-.3 1.7-1.9 3-3.6 3h-5.9-5.9c-1.8 0-3.3-1.2-3.6-3l-.7-3.5h20.5z" fill="#e7f2ff"/><circle cx="166" cy="139.1" fill="#e7f2ff" r="2"/><path d="m162 128c.3 0 .5.2.5.5s-.2.5-.5.5-.5-.2-.5-.5.2-.5.5-.5z" fill="#a4b2ea"/><path d="m88.3 140.5c.4 0 .6.3.6.6s-.3.6-.6.6-.6-.3-.6-.6.2-.6.6-.6z" fill="#a4b2ea"/><path d="m85.5 3.6v.2c0 1.6-1.3 2.9-2.9 2.9h-52.2c-1.6 0-2.9-1.3-2.9-2.9v-.2c0-1.6 1.3-2.9 2.9-2.9h52.2c1.6 0 2.9 1.3 2.9 2.9z" fill="#fff4c7"/><path d="m80.2 12.1-13 22.5h-21.4l-16.2-27.9h.8 52.2.7z" fill="#fff4c7"/><path d="m74.5 40.6v4c0 3.3-2.7 6-6 6h-6.5-11-6.5c-3.3 0-6-2.7-6-6v-4c0-3.3 2.7-6 6-6h1.3 21.5 1.3c3.2 0 5.9 2.7 5.9 6z" fill="#f3fcff"/><path d="m62 50.6v28.8c0 2.4-1.9 4.3-4.3 4.3h-1.2-1.2c-2.4 0-4.3-1.9-4.3-4.3v-28.8z" fill="#fff4c7"/><path d="m56.5 83.7c13.4 22-13.4 22 0 0z" fill="#ffeef4"/><path d="m48.2 143.9c1.1 0 2 .9 2 2s-.9 2-2 2-2-.9-2-2 .9-2 2-2z" fill="#ffeef4"/><g fill="#a4b2ea"><path d="m44.5 153.4c.3 0 .5.2.5.5s-.2.5-.5.5-.5-.2-.5-.5.2-.5.5-.5z"/><path d="m30.6 154.5c.3 0 .6.3.6.6s-.3.6-.6.6-.6-.3-.6-.6c0-.4.3-.6.6-.6z"/><path d="m18.3 142.5c.3 0 .5.2.5.5s-.2.5-.5.5-.5-.2-.5-.5c0-.2.2-.5.5-.5z"/></g><circle cx="9.8" cy="143.1" fill="#ffeef4" r="2.8"/><path d="m109.6 135.3c7.6 12-1 27.7-15.2 27.7h-75.9c-14.2 0-22.8-15.7-15.2-27.7l4-6.2.7.5c17.3 12.1 33.8 7 48.6.1 19-9 35-21.3 46.2-4.3l.4-.2zm-20.7 5.8c0-.3-.3-.6-.6-.6s-.6.3-.6.6.3.6.6.6.6-.3.6-.6zm-38.7 4.8c0-1.1-.9-2-2-2s-2 .9-2 2 .9 2 2 2 2-.9 2-2zm-5.2 8c0-.3-.2-.5-.5-.5s-.5.2-.5.5.2.5.5.5c.3.1.5-.2.5-.5zm-13.8 1.2c0-.4-.3-.6-.6-.6s-.6.3-.6.6.3.6.6.6.6-.3.6-.6zm-12.4-12c0-.3-.2-.5-.5-.5s-.5.2-.5.5.2.5.5.5.5-.2.5-.5zm-6.2 0c0-1.5-1.2-2.8-2.8-2.8s-2.8 1.2-2.8 2.8 1.2 2.8 2.8 2.8 2.8-1.3 2.8-2.8z" fill="#ffeef4"/><path d="m56.1 128.5.4 1.1c-14.7 7-31.2 12-48.6-.1l-.7-.5 5.8-9.1c11-10.5 25.9.4 43.1 8.6z" fill="#ffeef4"/><path d="m56.5 83.7h1.2c2.4 0 4.3-1.9 4.3-4.3v-28.8h6.5v14.8c0 3.4 1 6.8 2.8 9.7l31.8 50-.4.2c-11.1-16.9-27.2-4.7-46.2 4.3l-.4-1.1c-17.3-8.2-32.1-19.1-43.1-8.5l28.6-45c1.8-2.9 2.8-6.2 2.8-9.7v-14.8h6.5v28.8c0 2.4 1.9 4.3 4.3 4.3h1.3c-13.4 22.1 13.4 22.1 0 .1z" fill="#f3fcff"/></g><g fill-rule="nonzero" transform="translate(32 73)"><g fill="#fff"><path d="m56.1 44.7v-4c0-.8.7-1.4 1.4-1.4h18.5l-3.9-4.3h-12c.6-.2 1.3-.3 1.9-.4h-9.9c-.7 0-1.4.1-2 .4h-7.9l-2.2 4.3h4.5c.8 0 1.4.6 1.5 1.4v4c0 3.3 2.7 6 6 6h10c-3.2 0-5.9-2.7-5.9-6z"/><path d="m202.9 37.6v-4.6c0-.9.8-1.6 1.7-1.6h26.6l-4.5-4.9h-19.2c.7-.2 1.4-.4 2.2-.4h-11.5c-.8 0-1.6.1-2.3.4h-9.1l-2.5 4.9h5.2c.9 0 1.7.7 1.7 1.6v4.6c0 3.8 3.1 6.9 6.9 6.9h11.6c-3.7.1-6.8-3-6.8-6.9z"/><path d="m222.4 16.6v-3.7h-11.7c.7-.4 1.6-.6 2.5-.6h-9.6c-.9 0-1.7.2-2.5.6h-8v3.7h2.9c1 0 1.8.8 1.8 1.7 0 .3 0 .6.1 1l1.4 7.1h9.6l-1.4-7.1c-.3-1.4.9-2.7 2.3-2.7z" opacity=".5"/></g><path d="m81.2 11.5h-47.4l-2.4-5.4h52.9z" fill="#212121" opacity=".03"/><path d="m45.5 50.6h24v4.6h-24z" fill="#212121" opacity=".08"/><path d="m193.6 44.6h27.6v5.4h-27.6z" fill="#212121" opacity=".05"/><path d="m39.8 89.2-21.6 33.2c-2 3.1.2 7.2 3.9 7.2h12.2c4.1 0 7.7-2.8 8.6-6.8l6.9-28.8c.4-1.8-.3-3.7-1.8-4.9l-1.6-1.2c-2.1-1.5-5.1-.9-6.6 1.3z" fill="#fff" opacity=".65"/><path d="m5.8 135.3c-8.8 19.8 110.8 24.2 77.2-41.2 22.7 33.5 30.1 47 30.1 47v7.9l-10.5 14h-88.9l-9.3-8.5-4-10.5z" fill="#212121" opacity=".03"/><path d="m39.5 11.5 7.5 14c.6 1.1 1.8 1.9 3.1 1.9 2.1 0 3.8-1.9 3.5-4l-1.7-11.9z" fill="#fff" opacity=".35"/><path d="m85.9 3.6v.1h-52.1c-1.6 0-2.9 1.3-2.9 2.9v.1h-.1c-1.6 0-2.9-1.3-2.9-2.9v-.2c0-1.6 1.3-2.9 2.9-2.9h52.2c1.6 0 2.9 1.3 2.9 2.9z" fill="#fff" opacity=".5"/><path d="m159.2 139.3c7.1 8.9 91.4 19.5 99.2-35 2.6-.6 3-5.6 3.7-1.5 4 24.2-6.8 40.5-17.4 49.5-12.5 10.7-17.2 10.7-17.2 10.7h-42.1c-16.9-6-26.2-23.7-26.2-23.7z" fill="#212121" opacity=".03"/><path d="m206.9 108.9c17.1-13.5 45.4-13.9 55.1-8-6.5 14.4-43.6 13.7-55.1 8z" fill="#212121" opacity=".03"/></g><g stroke="#d3d5e6" stroke-linecap="round" stroke-linejoin="round" transform="translate(33 73)"><path d="m68.5 50.6h-24c-3.3 0-6-2.7-6-6v-4c0-3.3 2.7-6 6-6h24c3.3 0 6 2.7 6 6v4c0 3.3-2.7 6-6 6z" stroke-width="3"/><path d="m68.5 50.6v14.8c0 3.4 1 6.8 2.8 9.7l38.3 60.3c7.6 12-1 27.7-15.2 27.7" stroke-width="3"/><path d="m18.5 163c-14.2 0-22.8-15.7-15.2-27.7l38.3-60.3c1.8-2.9 2.8-6.2 2.8-9.7v-14.8" stroke-width="3"/><path d="m13.1 120c10.9-10.6 25.8.3 43.1 8.5" stroke-width="3"/><path d="m220.4 44.6v12.8" stroke-width="3"/><path d="m192.6 45.4v12" stroke-width="3"/><path d="m189.4 44.6h34.2c3.3 0 6-2.7 6-6v-6.5c0-3.3-2.7-6-6-6h-34.2c-3.3 0-6 2.7-6 6v6.5c0 3.3 2.7 6 6 6z" stroke-width="3"/><path d="m192.5 26.1-1.4-6.8c-.7-3.4 1.9-6.6 5.4-6.6h19.8c3.5 0 6.1 3.2 5.4 6.6l-1.4 6.8" stroke-width="3"/><path d="m196.2 44.6.7 3.5c.3 1.7 1.9 3 3.6 3h5.9 5.9c1.8 0 3.3-1.2 3.6-3l.7-3.5" stroke-width="3"/><g stroke-width="1.5"><circle cx="244.1" cy="140.3" r="1.4"/><circle cx="9.8" cy="143.1" r="2.8"/><circle cx="48.2" cy="145.9" r="2"/><circle cx="166" cy="139.1" r="2"/><circle cx="88.3" cy="141.1" r="1"/><circle cx="246.9" cy="116.8" r="1"/><circle cx="44.5" cy="153.9" r="1"/><circle cx="18.3" cy="143.1" r="1"/><circle cx="224.6" cy="138.6" r="1"/><circle cx="162" cy="128.5" r="1"/><circle cx="239.6" cy="130.3" r="1"/><circle cx="30.6" cy="155.1" r="1"/><circle cx="240.2" cy="147.9" r="1"/></g><path d="m226.5 163c20.8-8 35.5-28.2 35.5-51.8 0-30.7-24.8-55.5-55.5-55.5s-55.5 24.8-55.5 55.5c0 23.6 14.7 43.8 35.5 51.8" stroke-width="3"/><path d="m45.8 34.6-16.2-27.9h53.7l-16.1 27.9" stroke-width="3"/><path d="m82.6.7h-52.2c-1.6 0-2.9 1.3-2.9 2.9v.2c0 1.6 1.3 2.9 2.9 2.9h52.2c1.6 0 2.9-1.3 2.9-2.9v-.2c0-1.6-1.3-2.9-2.9-2.9z" stroke-width="3"/><path d="m57.7 83.7h-2.4c-2.4 0-4.3-1.9-4.3-4.3v-28.8h11v28.8c0 2.4-1.9 4.3-4.3 4.3z" stroke-width="3"/><path d="m56.5 83.7c-13.4 22 13.4 22 0 0" stroke-width="3"/><path d="m8 129.5c39.7 27.6 74.9-34.4 94.7-4.3" stroke-width="3"/><path d="m243.7 110.9c.3.5.4 1.1.4 1.7 0 2.1-1.7 3.9-3.9 3.9-2.1 0-3.9-1.7-3.9-3.9v-.1" stroke-width="1.5"/><circle cx="224.6" cy="130.3" r="2.6" stroke-width="1.5"/><path d="m151.1 108.3c19.4-7.3 34.1-7 58.3 1.8 8.8 3.2 18.3 3.7 27 2.4 2.6-.4 5.1-.9 7.6-1.6 7.1-2 13.2-5.1 17.3-8.8" stroke-width="3"/><path d="m205.9 108.9c19.9-14.9 43.2-12.9 54.7-10.1" stroke-width="3"/><path d="m80.2 12.1h-24.3" stroke-width="1.5"/><path d="m238 82.5 5.5 5.4" stroke-width="1.5"/><path d="m235.6 74.7 8.1 8.2" stroke-width="1.5"/><circle cx="206.37948" cy="129.6961" r="1.39996" stroke-width="1.499957" transform="matrix(.33860968 -.94092693 .94092693 .33860968 14.462837 279.967755)"/><circle cx="205.59739" cy="118.71588" r="1" stroke-width="1.499957" transform="matrix(.33860968 -.94092693 .94092693 .33860968 24.277155 271.969654)"/><circle cx="214.6" cy="148.6" r="1" stroke-width="1.5"/><circle cx="184.6" cy="138.6" r="1" stroke-width="1.5"/><circle cx="184.6" cy="108.6" r="1" stroke-width="1.5"/><circle cx="104.6" cy="138.6" r="1" stroke-width="1.5"/></g><g fill-rule="nonzero" transform="translate(79 1)"><g fill="#19d2ff"><path d="m166 234.6v.3h-166v-.3c0-7.6 6.1-13.7 13.7-13.7h.3 8 122 8 .3c7.6.1 13.7 6.2 13.7 13.7z"/><path d="m160.7 132c2.9 0 5.3 2.2 5.3 5 0 1.4-.6 2.6-1.5 3.5-1 .9-2.3 1.5-3.7 1.5h-8.8-5-3-10-22-18-22-18-22-10-8-9c-2.8 0-5-2.2-5-5 0-1.4.6-2.6 1.5-3.5s2.2-1.5 3.5-1.5h9 8 10 22 18 22 18 22 10 3 5z"/><path d="m152 142v79h-8v-79h3z"/><path d="m152 128.3v3.7h-5-3v-3.7c0-2.2 1.8-4 4-4s4 1.8 4 4z"/></g><path d="m137.7 115c.8.8 1.3 1.9 1.3 3.2 0 2.5-2 4.5-4.5 4.5h-.5-22-.5c-1.2 0-2.4-.5-3.2-1.3s-1.3-1.9-1.3-3.2c0-2.5 2-4.5 4.5-4.5h23c1.2 0 2.4.5 3.2 1.3z" fill="#ecf7ff"/><path d="m134 166.1v33.6c0 6.1-4.9 11-11 11s-11-4.9-11-11v-31.9c8.1-3.7 13.2 5.1 22-1.7zm-12 12.5c0-1.2-1-2.2-2.2-2.2s-2.2 1-2.2 2.2 1 2.2 2.2 2.2 2.2-1 2.2-2.2z" fill="url(#b)"/><path d="m134 142v24.1c-8.8 6.8-13.9-2-22 1.6v-25.7z" fill="#ecf7ff"/><path d="m112 122.7h22v9.3h-22z" fill="#ecf7ff"/><path d="m119.8 176.3c1.2 0 2.2 1 2.2 2.2s-1 2.2-2.2 2.2-2.2-1-2.2-2.2c-.1-1.2.9-2.2 2.2-2.2z" fill="url(#c)"/><path d="m105.4 19.8c1.5 0 2.7 1.2 2.7 2.7s-1.2 2.7-2.7 2.7-2.7-1.2-2.7-2.7c0-1.4 1.2-2.7 2.7-2.7z" fill="#d2effc" stroke="#d3d5e6" stroke-linecap="round" stroke-linejoin="round" stroke-width="1.5"/><path d="m93.2 34.1c.8-.2 1.5-.2 2.3-.2 7 0 12.6 5.6 12.6 12.6 0 6.2-4.4 11.3-10.3 12.4.1.6.2 1.3.2 2 0 5-4.1 9.1-9.1 9.1-4 0-7.4-2.6-8.6-6.2-2.3 2.3-5.4 3.8-8.9 3.8-6.9 0-12.5-5.6-12.5-12.5 0-5.3 3.3-9.9 8-11.7-4.2-3.1-7-8.1-7-13.7 0-9.3 7.6-16.9 16.9-16.9s16.9 7.6 16.9 16.9c.1 1.4-.1 2.9-.5 4.4z" fill="#d2f3ff" stroke="#d3d5e6" stroke-linecap="round" stroke-linejoin="round" stroke-width="1.5"/><path d="m97.7 115c.8.8 1.3 1.9 1.3 3.2 0 2.5-2 4.5-4.5 4.5h-.5-22-.5c-1.2 0-2.4-.5-3.2-1.3s-1.3-1.9-1.3-3.2c0-2.5 2-4.5 4.5-4.5h23c1.2 0 2.4.5 3.2 1.3z" fill="#ecf7ff"/><circle cx="91.9" cy="84.1" fill="#d2effc" r="4.3" stroke="#d3d5e6" stroke-linecap="round" stroke-linejoin="round" stroke-width="1.5"/><path d="m94 182v15.4c0 8.4-4.9 13.3-11 13.3s-11-4.9-11-11v-18.4c9.2-7.9 14.2 8.7 22 .7z" fill="url(#d)"/><path d="m94 142v40c-7.8 8-12.8-8.6-22-.7v-39.3z" fill="#ecf7ff"/><path d="m72 122.7h22v9.3h-22z" fill="#ecf7ff"/><path d="m82 .7c1.1 0 2 .9 2 2s-.9 2-2 2-2-.9-2-2 .9-2 2-2z" fill="#d2effc" stroke="#d3d5e6" stroke-linecap="round" stroke-linejoin="round" stroke-width="1.5"/><path d="m75.4 87.3c1.5 0 2.7 1.2 2.7 2.7s-1.2 2.7-2.7 2.7-2.7-1.2-2.7-2.7c0-1.4 1.2-2.7 2.7-2.7z" fill="#d2effc" stroke="#d3d5e6" stroke-linecap="round" stroke-linejoin="round" stroke-width="1.5"/><path d="m57.7 115c.8.8 1.3 1.9 1.3 3.2 0 2.5-2 4.5-4.5 4.5h-.5-22-.5c-1.2 0-2.4-.5-3.2-1.3s-1.3-1.9-1.3-3.2c0-2.5 2-4.5 4.5-4.5h23c1.2 0 2.4.5 3.2 1.3z" fill="#ecf7ff"/><path d="m54 191.3v8.4c0 6.1-4.9 11-11 11s-11-4.9-11-11v-40.6c8.8 6.8 13.9-2 22 1.6v30.6c0-1.3-1.1-2.4-2.4-2.4s-2.4 1.1-2.4 2.4 1.1 2.4 2.4 2.4c1.3-.1 2.4-1.1 2.4-2.4zm-5.8-19.8c0-1.1-.9-1.9-1.9-1.9-1.1 0-1.9.9-1.9 1.9s.9 1.9 1.9 1.9c1.1 0 1.9-.9 1.9-1.9z" fill="url(#e)"/><path d="m54 142v18.8c-8.1-3.6-13.2 5.1-22-1.6v-17.2z" fill="#ecf7ff"/><path d="m32 122.7h22v9.3h-22z" fill="#ecf7ff"/><path d="m51.6 188.9c1.3 0 2.4 1.1 2.4 2.4s-1.1 2.4-2.4 2.4-2.4-1.1-2.4-2.4 1.1-2.4 2.4-2.4z" fill="url(#f)"/><path d="m48.5 90.8c1.1 0 2 .9 2 2s-.9 2-2 2-2-.9-2-2 .9-2 2-2z" fill="#d2effc" stroke="#d3d5e6" stroke-linecap="round" stroke-linejoin="round" stroke-width="1.5"/><circle cx="46.3" cy="171.5" fill="url(#g)" r="1.9"/><path d="m14 142h8v79h-8z" fill="#19d2ff"/><path d="m22 128.3v3.7h-8v-3.7c0-2.2 1.8-4 4-4s4 1.8 4 4z" fill="#19d2ff"/></g><g fill-rule="nonzero" transform="translate(78 13)"><g fill="#212121"><path d="m33.3 110.6h21.7v4.6h-21.7z" opacity=".2"/><path d="m73.2 110.6h21.7v4.6h-21.7z" opacity=".2"/><path d="m113.2 110.6h21.7v4.7h-21.7z" opacity=".2"/><path d="m15 130h8v4.3h-8z" opacity=".25"/><path d="m145 130h8v4.3h-8z" opacity=".25"/></g><path d="m37.7 107.8v-1.9c0-.4.3-.7.7-.7h21.2l-2-2h-17.9c.3-.1.6-.2 1-.2h-5.1c-.4 0-.7.1-1 .2h-4l-1.1 2h2.3c.4 0 .7.3.8.7v1.9c0 1.6 1.4 2.9 3.1 2.9h5.2c-1.8-.1-3.2-1.3-3.2-2.9z" fill="#fff"/><path d="m77.7 107.8v-1.9c0-.4.3-.7.7-.7h21.2l-2-2h-17.9c.3-.1.6-.2 1-.2h-5.1c-.4 0-.7.1-1 .2h-4l-1.1 2h2.3c.4 0 .7.3.8.7v1.9c0 1.6 1.4 2.9 3.1 2.9h5.2c-1.8-.1-3.2-1.3-3.2-2.9z" fill="#fff"/><path d="m117.4 107.8v-1.9c0-.4.3-.7.7-.7h21.2l-2-2h-17.9c.3-.1.6-.2 1-.2h-5.1c-.4 0-.7.1-1 .2h-4l-1.1 2h2.3c.4 0 .7.3.8.7v1.9c0 1.6 1.4 2.9 3.1 2.9h5.2c-1.8-.1-3.2-1.3-3.2-2.9z" fill="#fff"/><g fill="#212121" opacity=".25" transform="translate(68)"><path d="m16 19.7v.2z" opacity=".2"/><path d="m14.6 54c0 .1 0 .1 0 0 .1.1.1.1 0 0z" opacity=".2"/><path d="m41.2 34.4c0-.4 0-.9-.1-1.3 0-.4-.1-.8-.2-1.2-.1-.5-.2-1-.4-1.4-.1-.2-.1-.3-.2-.5-.3-.9-.7-1.7-1.2-2.4-.1-.2-.2-.4-.4-.5-.2-.2-.4-.5-.6-.7-.1-.2-.3-.3-.4-.5-.7-.7-1.4-1.3-2.2-1.9-.3-.2-.7-.4-1-.6s-.7-.4-1-.5c-.4-.2-.7-.3-1.1-.4-.2-.1-.4-.1-.6-.2s-.4-.1-.6-.1c-.1 0-.3-.1-.4-.1s-.2 0-.2 0c-.2 0-.4-.1-.6-.1s-.4 0-.6-.1c-.3 0-.6 0-.9 0-.8 0-1.6.1-2.3.2.1-.3.2-.6.2-.9.2-.7.3-1.5.3-2.3 0-.4.1-.9.1-1.3 0-9.3-7.6-16.9-16.9-16.9-3.7 0-7.1 1.2-9.8 3.1 1.5-.6 3.1-1 4.8-1 6.7 0 12.1 5.4 12.1 12.1 0 1.7-.3 3.6-.9 5-.9.9-1.5 1.9-2 3.1-.3.9-.5 1.9-.5 2.9 0 2.1.8 4 2 5.5-.5.7-.8 1.6-.8 2.6 0 2.6 2.1 4.7 4.7 4.7 3.1.4 5.7 2.6 6.7 5.5.3.8.4 1.7.4 2.6 0 4.5-3.7 8.2-8.2 8.2-1.4 0-2.7-.3-3.8-.9.2.2.3.5.5.7.1.1.1.2.2.2.1.1.2.2.3.3.2.2.3.3.5.5.1.1.3.2.4.3.2.2.5.4.8.5.2.1.5.2.7.4.2.1.3.2.5.2.7.3 1.4.5 2.2.6.2 0 .3 0 .5.1h.3.5c5 0 9.1-4.1 9.1-9.1 0-.7-.1-1.4-.2-2 5.9-1.1 10.3-6.2 10.3-12.4z" opacity=".2"/></g><ellipse cx="71.97131" cy="12.09161" fill="#fff" opacity=".5" rx="6.999933" ry="4.599956" transform="matrix(.70710678 -.70710678 .70710678 .70710678 12.529849 54.432952)"/><ellipse cx="68.78391" cy="38.31805" fill="#fff" opacity=".5" rx="4.699955" ry="3.199969" transform="matrix(.70710678 -.70710678 .70710678 .70710678 -6.948612 59.860666)"/><circle cx="87.5" cy="46.8" fill="#fff" opacity=".5" r="3"/><circle cx="92.3" cy="71.3" fill="#fff" opacity=".75" r="1.8"/><circle cx="76" cy="77.8" fill="#fff" opacity=".75" r="1"/><g fill="#212121" opacity=".06" transform="translate(33 172)"><path d="m1 11.8c0 8.8 19.5 9.1 19.5-11.1 0 27.1 3.1 21.5-6.2 25.5-6.9 2.9-13.8.9-13.3-14.4z"/><path d="m41 11.8c0 8.8 19.5 9.1 19.5-11.1 0 27.1 3.1 21.5-6.2 25.5-6.9 2.9-13.8.9-13.3-14.4z"/><path d="m81 11.8c0 8.8 19.5 9.1 19.5-11.1 0 27.1 3.1 21.5-6.2 25.5-6.9 2.9-13.8.9-13.3-14.4z"/></g><path d="m33 129.4h22.5v5.5h-22.5z" fill="#212121" opacity=".2"/><path d="m73 129.4h22.5v5.5h-22.5z" fill="#212121" opacity=".2"/><path d="m113 129.4h22.5v5.5h-22.5z" fill="#212121" opacity=".2"/><path d="m21.1 113.6c-1.5.6-2.5 2-2.5 3.7v3.7h-3v-3.7c0-2.2 1.8-4 4-4 .5 0 1 .1 1.5.3z" fill="#fff" opacity=".5"/><path d="m151.2 113.6c-1.5.6-2.5 2-2.5 3.7v3.7h-3v-3.7c0-2.2 1.8-4 4-4 .6 0 1.1.1 1.5.3z" fill="#fff" opacity=".5"/><path d="m165.8 123.6-1.7-2c.8.5 1.4 1.2 1.7 2z" fill="#fff" opacity=".5"/><path d="m167 125-1.9 4.4-49.2 1.7v-1.1c18.1 0 23.5-2.9 25-6.4h23.1c.7 0 1.4.1 2 .4 0-.1-.1-.2-.1-.3z" fill="#212121" opacity=".08"/><path d="m3.6 130.3c-1.9-.7-3.3-2.5-3.3-4.7 0-1.4.6-2.6 1.5-3.5s2.2-1.5 3.5-1.5h9 133 13.7c2.3 0 4.3 1.4 5 3.4-.6-.2-1.3-.4-2-.4h-13.7-133-9c-1.4 0-2.6.6-3.5 1.5s-1.5 2.2-1.5 3.5c0 .6.1 1.2.3 1.7z" fill="#fff" opacity=".5"/><path d="m15 195.7c0 4.8 8.5 1.8 8.5-14v27.3h-8.5z" fill="#212121" opacity=".1"/><path d="m42.9 115.2h-5.9v3.9c0 1.6 5.9 1.6 5.9 0z" fill="#fff" opacity=".5"/><path d="m82.9 115.2h-5.9v3.9c0 1.6 5.9 1.6 5.9 0z" fill="#fff" opacity=".5"/><path d="m122.9 115.2h-5.9v3.9c0 1.6 5.9 1.6 5.9 0z" fill="#fff" opacity=".5"/><path d="m144.8 195.7c0 4.8 8.5 1.8 8.5-14v27.3h-8.5z" fill="#212121" opacity=".1"/><path d="m166.2 222.4h-65.5c17.9 0 21-9.4 21-9.4h34.4c2.5 0 4.9.8 6.8 2.2-.5-.8-1-1.5-1.7-2.2h2.2z" fill="#212121" opacity=".1"/><path d="m163 215.2c-2-1.4-4.3-2.2-6.8-2.2h-134c-5.8 0-10.6 4.2-12.1 10h-8.1v-.3c0-7.6 5.6-13.7 12.5-13.7h138c4.4 0 8.3 2.4 10.5 6.2z" fill="#fff" opacity=".5"/></g><g stroke="#484d78" stroke-linecap="round" stroke-linejoin="round" transform="translate(2 1)"><g stroke-width="4"><g transform="translate(0 235)"><path d="m296.8 0h-288.6"/><path d="m.5 0h.1.2"/><path d="m319.2 0h-14.4"/></g><path d="m229.3 221h-138.6c-7.6 0-13.7 6.1-13.7 13.7v.3h166v-.3c0-7.6-6.1-13.7-13.7-13.7z"/><path d="m99 128.3v3.7h-8v-3.7c0-2.2 1.8-4 4-4s4 1.8 4 4z"/><path d="m91 142h8v79h-8z"/><path d="m0 0v79h8v-79" transform="translate(221 142)"/><path d="m221 132v-3.7c0-2.2 1.8-4 4-4s4 1.8 4 4v3.7"/><path d="m91 142h-9c-2.8 0-5-2.2-5-5 0-1.4.6-2.6 1.5-3.5s2.2-1.5 3.5-1.5h9"/><path d="m149 132v-9.3h22v9.3"/><path d="m171 142v55.4c0 8.4-4.9 13.3-11 13.3s-11-4.9-11-11v-57.7"/><path d="m109 132v-9.3h22v9.3"/><path d="m131 142v57.7c0 6.1-4.9 11-11 11s-11-4.9-11-11v-57.7"/><path d="m189 132v-9.3h22v9.3"/><path d="m211 142v57.7c0 6.1-4.9 11-11 11s-11-4.9-11-11v-57.7"/><path d="m131.5 113.7h-23c-2.5 0-4.5 2-4.5 4.5 0 2.5 2 4.5 4.5 4.5h23c2.5 0 4.5-2 4.5-4.5 0-2.5-2-4.5-4.5-4.5z"/><path d="m171.5 113.7h-23c-2.5 0-4.5 2-4.5 4.5 0 2.5 2 4.5 4.5 4.5h23c2.5 0 4.5-2 4.5-4.5 0-2.5-2-4.5-4.5-4.5z"/><path d="m211.5 113.7h-23c-2.5 0-4.5 2-4.5 4.5 0 2.5 2 4.5 4.5 4.5h23c2.5 0 4.5-2 4.5-4.5 0-2.5-2-4.5-4.5-4.5z"/></g><path d="m204.5 188.5h.1" fill="#6a77c6" fill-rule="nonzero" stroke-width="3"/><path d="m155.1 194.5h.1" fill="#6a77c6" fill-rule="nonzero" stroke-width="3"/><path d="m115.7 201.8h.1" fill="#6a77c6" fill-rule="nonzero" stroke-width="3"/><path d="m163.4 100.2h.1" fill="#6a77c6" fill-rule="nonzero" stroke-width="4"/><path d="m130.4 41.8h.1" fill="#6a77c6" fill-rule="nonzero" stroke-width="4"/><circle cx="196.8" cy="178.6" r="2.2" stroke-width="2"/><circle cx="123.3" cy="171.5" r="1.9" stroke-width="2"/><circle cx="128.6" cy="191.3" r="2.4" stroke-width="2"/><circle cx="168.9" cy="84.1" r="4.3" stroke-width="2"/><circle cx="152.4" cy="90.1" r="2.7" stroke-width="2"/><circle cx="125.5" cy="92.8" r="2" stroke-width="2"/><circle cx="159" cy="2.7" r="2" stroke-width="2"/><circle cx="182.4" cy="22.6" r="2.7" stroke-width="2"/><path d="m91 142h133 13.7c1.5 0 2.8-.6 3.7-1.5s1.5-2.2 1.5-3.5c0-2.8-2.4-5-5.3-5h-13.6-133" stroke-width="4"/><path d="m172.8 229h-5.8" stroke-width="2"/><path d="m241.3 229h-63.6" stroke-width="2"/><path d="m166 35.7c1.3-.8 2.7-1.4 4.2-1.6.8-.2 1.5-.2 2.3-.2 7 0 12.6 5.6 12.6 12.6 0 6.2-4.4 11.3-10.3 12.4" stroke-width="4"/><path d="m144 43.3c-4.2-3.1-7-8.1-7-13.7 0-9.3 7.6-16.9 16.9-16.9s16.9 7.6 16.9 16.9c0 1.6-.2 3.1-.6 4.5" stroke-width="4"/><path d="m148.5 42.4c-1.6 0-3.1.3-4.5.8-4.7 1.8-8 6.4-8 11.7 0 6.9 5.6 12.5 12.5 12.5 3.5 0 6.7-1.4 8.9-3.8" stroke-width="4"/><path d="m174.9 58.8c.1.6.2 1.3.2 2 0 5-4.1 9.1-9.1 9.1s-9.1-4.1-9.1-9.1" stroke-width="4"/><path d="m189 167.8c8.1-3.6 13.2 5.1 22-1.6" stroke-width="4"/><path d="m149 181.3c9.2-7.9 14.2 8.7 22 .7" stroke-width="4"/><path d="m131 160.8c-8.1-3.6-13.2 5.1-22-1.6" stroke-width="4"/><path d="m85.9 229c-.8 1.7-1.3 3.6-1.3 5.7" stroke-width="2"/></g><g fill="#fff" fill-rule="nonzero" opacity=".5" transform="translate(115 147)"><path d="m5.9.9h-5.9v39.9c0 1.6 1.3 2.9 2.9 2.9 1.6 0 2.9-1.3 2.9-2.9v-39.9z"/><path d="m45.9.9h-5.9v39.9c0 1.6 1.3 2.9 2.9 2.9 1.6 0 2.9-1.3 2.9-2.9v-39.9z"/><path d="m85.9.9h-5.9v39.9c0 1.6 1.3 2.9 2.9 2.9 1.6 0 2.9-1.3 2.9-2.9v-39.9z"/></g></g></svg>