<svg height="202" viewBox="0 0 321 202" width="321" xmlns="http://www.w3.org/2000/svg" xmlns:xlink="http://www.w3.org/1999/xlink"><linearGradient id="a" x1=".042553%" x2="99.87234%" y1="50.162672%" y2="50.162672%"><stop offset="0" stop-color="#19ff53"/><stop offset=".1413" stop-color="#18ff58"/><stop offset=".3166" stop-color="#15ff68"/><stop offset=".5097" stop-color="#11ff81"/><stop offset=".7158" stop-color="#0bffa4"/><stop offset=".9299" stop-color="#03ffd1"/><stop offset="1" stop-color="#00ffe1"/></linearGradient><linearGradient id="b" x1="50.11194%" x2="50.11194%" y1="101.304348%" y2="-3.043478%"><stop offset="0" stop-color="#ffe061"/><stop offset=".1689" stop-color="#ffda61"/><stop offset=".39" stop-color="#ffca61"/><stop offset=".6399" stop-color="#ffaf61"/><stop offset=".9092" stop-color="#ff8961"/><stop offset="1" stop-color="#ff7b61"/></linearGradient><linearGradient id="c" x1="51.299743%" x2="46.799743%" y1="2.589971%" y2="101.637812%"><stop offset="0" stop-color="#0dff00"/><stop offset="1" stop-color="#00fff2"/></linearGradient><g fill="none" fill-rule="evenodd"><g fill-rule="nonzero" transform="translate(26 54)"><g fill="#fff5ed"><path d="m272.2 43.8c.9.9 1.5 2.2 1.5 3.5 0 2.8-2.2 5-5 5h-7-8-10-22-17-22-17-22-10-8-7c-1.4 0-2.6-.6-3.5-1.5s-1.5-2.2-1.5-3.5c0-2.8 2.2-5 5-5h7 8 10 22 17 22 17 22 10 8 7c1.4.1 2.6.6 3.5 1.5z"/><path d="m261.7 131.3h.3c7.5 0 13.7 6.1 13.7 13.7v.3h-164v-.3c0-7.5 6.1-13.7 13.7-13.7h.3 8 120z"/><path d="m253.7 52.4h8v79h-8z"/><path d="m261.7 38.6v3.7h-8v-3.7c0-2.2 1.8-4 4-4s4 1.8 4 4z"/></g><path d="m247.4 25.3c.8.8 1.3 1.9 1.3 3.2 0 2.5-2 4.5-4.5 4.5h-.5-22-.5c-1.2 0-2.4-.5-3.2-1.3s-1.3-1.9-1.3-3.2c0-2.5 2-4.5 4.5-4.5h23c1.2 0 2.3.5 3.2 1.3z" fill="#f3fcff"/><path d="m243.7 84v26c0 6.1-4.9 11-11 11s-11-4.9-11-11v-24.3c8.1-3.7 13.2 5.1 22-1.7z" fill="#e7f2ff"/><path d="m243.7 52.4v31.6c-8.8 6.8-13.9-2-22 1.6v-33.3h22z" fill="#f3fcff"/><path d="m221.7 33h22v9.3h-22z" fill="#f3fcff"/><path d="m208.4 25.3c.8.8 1.3 1.9 1.3 3.2 0 2.5-2 4.5-4.5 4.5h-.5-22-.5c-1.2 0-2.4-.5-3.2-1.3s-1.3-1.9-1.3-3.2c0-2.5 2-4.5 4.5-4.5h23c1.2 0 2.3.5 3.2 1.3z" fill="#f3fcff"/><path d="m204.7 71.1v36.6c0 8.4-4.9 13.3-11 13.3s-11-4.9-11-11v-40.5c8.7 6.7 13.9-2 22 1.6z" fill="#ffeef4"/><path d="m204.7 52.4v18.8c-8.1-3.6-13.2 5.1-22-1.6v-17.1h22z" fill="#f3fcff"/><path d="m182.7 33h22v9.3h-22z" fill="#f3fcff"/><path d="m169.4 25.3c.8.8 1.3 1.9 1.3 3.2 0 2.5-2 4.5-4.5 4.5h-.5-22-.5c-1.2 0-2.4-.5-3.2-1.3s-1.3-1.9-1.3-3.2c0-2.5 2-4.5 4.5-4.5h23c1.2 0 2.3.5 3.2 1.3z" fill="#f3fcff"/><path d="m165.7 82.9v27.1c0 6.1-4.9 11-11 11s-11-4.9-11-11v-27.7c9.2-6.6 14.2 7.3 22 .6z" fill="#e7f2ff"/><path d="m165.7 52.4v30.5c-7.8 6.7-12.8-7.2-22-.6v-30h22z" fill="#f3fcff"/><path d="m143.7 33h22v9.3h-22z" fill="#f3fcff"/><path d="m125.7 52.4h8v79h-8z" fill="#fff5ed"/><path d="m133.7 38.6v3.7h-8v-3.7c0-2.2 1.8-4 4-4s4 1.8 4 4z" fill="#fff5ed"/><path d="m79.8 15.9v6.5c0 3.3-2.7 6-6 6h-9.5-24.1-9.5c-3.3 0-6-2.7-6-6v-6.5c0-3.3 2.7-6 6-6h7.2 28.7 7.2c3.3 0 6 2.7 6 6z" fill="#f3fcff"/><path d="m72.6 49.1c12.8 5.5 23 16 28 29-10.5-1.1-21.2 3-31.8 8.4-24.6-14.8-67.7-9.4-68.4 10.2 0-21.4 13-39.7 31.5-47.6z" fill="#f3fcff"/><path d="m72.6 28.5v20.6h-40.8v-20.6h8.3l.3 2.7c.5 4 3.9 7 8 7h7.5c4.1 0 7.5-3 8-7l.3-2.7z" fill="#f3fcff"/><path d="m59.9.1c4.2 0 7.4 3.7 6.9 7.8l-.2 2h-28.7l-.2-2c-.5-4.2 2.7-7.8 6.9-7.8z" fill="#e8f2fb"/><path d="m64.3 28.4v.1h-24.1l-.1-.1z" fill="#a4b2ea"/><path d="m64.3 28.5-.3 2.7c-.5 4-3.9 7-8 7h-7.5c-4 0-7.5-3-8-7l-.3-2.7z" fill="#e8f2fb"/><path d="m.3 96.7c.8-19.5 43.9-25 68.4-10.2-26 13.4-51 35.3-68.4 10.2z" fill="#ffeef4"/><path d="m68.8 86.5c10.6-5.5 21.3-9.5 31.8-8.4 2.3 5.8 3.5 12.1 3.5 18.7 0 22.1-13.8 40.9-33.2 48.4h-37.3c-19.4-7.5-33.2-26.4-33.2-48.4 0 0 0 0 0-.1 17.3 25.1 42.3 3.2 68.4-10.2z" fill="#ffeef4"/><path d="m93.1 129.6c.3 0 .6.3.6.6 0 .4-.3.6-.6.6s-.6-.3-.6-.6c-.1-.4.2-.6.6-.6z" fill="#a4b2ea"/></g><g fill-rule="nonzero" transform="translate(50 54)"><g fill="#212121"><path d="m119.7 33h22.1v10.2h-22.1z" opacity=".05"/><path d="m119.3 52.3h17.5v5h-17.5z" opacity=".05"/><path d="m124.9 118.2c.6.1 1.3.2 2 .2 5.5 0 9.9-4.4 9.9-9.9v-56.1h5v58.8c0 5.5-4.4 9.9-9.9 9.9-2.7-.1-5.2-1.1-7-2.9z" opacity=".05"/></g><path d="m125.8 27.3h20.7l-2.6-3h-16.6c.2-.1.5-.2.7-.2h-5.4c-.1 0-.2 0-.2 0-.2 0-.5.1-.7.2h-5.2l-1.8 3h4.9c-.4 2.3.6 5.1 2.9 5.1l5.4-.1c-1.7.1-2.5-2.6-2.1-5z" fill="#fff"/><path d="m158.7 33h22.1v10.2h-22.1z" fill="#212121" opacity=".05"/><path d="m158.3 52.3h17.5v5h-17.5z" fill="#212121" opacity=".05"/><path d="m163.9 118.2c.6.1 1.3.2 2 .2 5.5 0 9.9-4.4 9.9-9.9v-56.1h5v58.8c0 5.5-4.4 9.9-9.9 9.9-2.7-.1-5.2-1.1-7-2.9z" fill="#212121" opacity=".05"/><path d="m164.8 27.3h20.7l-2.6-3h-16.6c.2-.1.5-.2.7-.2h-5.4c-.1 0-.2 0-.2 0-.2 0-.5.1-.7.2h-5.2l-1.8 3h4.9c-.4 2.3.6 5.1 2.9 5.1l5.4-.1c-1.7.1-2.4-2.6-2.1-5z" fill="#fff"/><path d="m197.7 33h22.1v10.2h-22.1z" fill="#212121" opacity=".05"/><path d="m197.3 52.3h17.5v5h-17.5z" fill="#212121" opacity=".05"/><path d="m202.9 118.2c.6.1 1.3.2 2 .2 5.5 0 9.9-4.4 9.9-9.9v-56.1h5v58.8c0 5.5-4.4 9.9-9.9 9.9-2.7-.1-5.2-1.1-7-2.9z" fill="#212121" opacity=".05"/><path d="m203.8 27.3h20.7l-2.6-3h-16.6c.2-.1.5-.2.7-.2h-5.4c-.1 0-.2 0-.2 0-.2 0-.5.1-.7.2h-5.2l-1.8 3h4.9c-.4 2.3.6 5.1 2.9 5.1l5.4-.1c-1.7.1-2.4-2.6-2.1-5z" fill="#fff"/><path d="m229.7 52.4h8v5h-8z" fill="#212121" opacity=".05"/><path d="m101.7 52.4h8v5h-8z" fill="#212121" opacity=".05"/><path d="m250.8 140.3c-2-5.5-6.5-8.3-13.1-9h-24.3c-11.6 5.9-24.4 9-37.5 9h-88.1v5h163.9v-5z" fill="#212121" opacity=".05"/><path d="m91.2 136.8h65.1c2.9 0 5.9-2.4 5.9-5.4h-61.9c-3.6 1-6.8 2.6-9.1 5.4z" fill="#fff" opacity=".5"/><path d="m89.7 47.4h160c-.3-3.5-2.4-5.5-7.5-5h-149.3z" fill="#fff" opacity=".5"/><path d="m48.6 28.4h-40.5v7.2h19.7c7.4 0 13.5 6 13.5 13.5h7.1v-13.5h.2z" fill="#212121" opacity=".04"/><path d="m41.2 49.1c34.4 16 43.1 69.6 5.6 96.1 48.9-15.6 40.9-94.2-5.6-96.1z" fill="#212121" opacity=".04"/><path d="m42.6 5c0-6.6-29-6.6-29 0h3.5c1.5 0 2.7 1.1 2.8 2.6l.2 2.4h6.9v-2.1c0-1.6 1.3-2.8 2.8-2.8h12.8z" fill="#fff" opacity=".5"/><path d="m55.8 15.1c0-2.9-2.3-5.2-5.2-5.2h-44.7c-2.9 0-5.2 2.3-5.2 5.2h5.5c1.6 0 3 1.2 3.3 2.8.5 4.2 1.9 7.8 4.8 10.7h6.8v-10.2c0-1.8 1.5-3.3 3.3-3.3z" fill="#fff" opacity=".5"/></g><g transform="translate(26 54)"><g stroke="#d3d5e6" stroke-linecap="round" stroke-linejoin="round"><path d="m262 131.3h-136.7c-7.6 0-13.7 6.1-13.7 13.7v.3h164v-.3c.1-7.6-6.1-13.7-13.6-13.7z" stroke-width="3"/><path d="m133.7 38.6v3.7h-8v-3.7c0-2.2 1.8-4 4-4s4 1.8 4 4z" stroke-width="3"/><path d="m125.7 52.4h8v79h-8z" stroke-width="3"/><path d="m.7.4v78.9h8v-78.9" stroke-width="3" transform="translate(253 52)"/><path d="m253.7 42.4v-3.7c0-2.2 1.8-4 4-4s4 1.8 4 4v3.7" stroke-width="3"/><path d="m182.7 42.4v-9.4h22v9.4" stroke-width="3"/><path d="m204.7 52.4v55.4c0 8.4-4.9 13.3-11 13.3s-11-4.9-11-11v-57.7" stroke-width="3"/><path d="m143.7 42.4v-9.4h22v9.4" stroke-width="3"/><path d="m165.7 52.4v57.6c0 6.1-4.9 11-11 11s-11-4.9-11-11v-57.7" stroke-width="3"/><path d="m221.7 42.4v-9.4h22v9.4" stroke-width="3"/><path d="m243.7 52.4v57.6c0 6.1-4.9 11-11 11s-11-4.9-11-11v-57.7" stroke-width="3"/><path d="m166.2 24h-23c-2.5 0-4.5 2-4.5 4.5 0 2.5 2 4.5 4.5 4.5h23c2.5 0 4.5-2 4.5-4.5 0-2.5-2-4.5-4.5-4.5z" stroke-width="3"/><path d="m205.2 24h-23c-2.5 0-4.5 2-4.5 4.5 0 2.5 2 4.5 4.5 4.5h23c2.5 0 4.5-2 4.5-4.5 0-2.5-2-4.5-4.5-4.5z" stroke-width="3"/><path d="m244.2 24h-23c-2.5 0-4.5 2-4.5 4.5 0 2.5 2 4.5 4.5 4.5h23c2.5 0 4.5-2 4.5-4.5 0-2.5-2-4.5-4.5-4.5z" stroke-width="3"/><path d="m158.1 103.8h.1" stroke-width="3"/><path d="m197.3 101.7h.1" stroke-width="3"/><path d="m226.7 109.6h.1" stroke-width="3"/><path d="m152.7 88.6h.1" stroke-width="1.5"/><path d="m226.7 91.8h.1" stroke-width="1.5"/><path d="m199.9 76.9h.1" stroke-width="1.5"/><path d="m56.7 103.8h.1" stroke-width="1.5"/><path d="m45.9 89.5h.1" stroke-width="1.5"/><path d="m129.6 47.4h.1" stroke-width="3"/><path d="m257.6 47.4h.1" stroke-width="3"/><path d="m221.7 85.7c8.1-3.6 13.2 5.1 22-1.6" stroke-width="3"/><path d="m143.7 82.3c9.2-6.7 14.2 7.3 22 .6" stroke-width="3"/><path d="m204.7 71.1c-8.1-3.6-13.2 5.1-22-1.6" stroke-width="3"/><path d="m268.7 42.4h-150c-2.8 0-5 2.2-5 5 0 2.8 2.2 5 5 5h150c2.8 0 5-2.2 5-5 0-2.8-2.3-5-5-5z" stroke-width="3"/></g><path d="m93.1 129.6c.3 0 .6.3.6.6 0 .4-.3.6-.6.6s-.6-.3-.6-.6c-.1-.4.2-.6.6-.6z" fill="#a4b2ea" fill-rule="nonzero"/><path d="m30.7 28.4h43.1c3.3 0 6-2.7 6-6v-6.5c0-3.3-2.7-6-6-6h-43.1c-3.3 0-6 2.7-6 6v6.5c0 3.3 2.7 6 6 6z" stroke="#d3d5e6" stroke-linecap="round" stroke-linejoin="round" stroke-width="3"/><path d="m33.5 145.2c-19.4-7.5-33.2-26.4-33.2-48.4 0-21.4 13-39.8 31.5-47.7" stroke="#d3d5e6" stroke-linecap="round" stroke-linejoin="round" stroke-width="3"/><path d="m72.6 49.1c18.5 7.9 31.5 26.3 31.5 47.7 0 22.1-13.8 40.9-33.2 48.4" stroke="#d3d5e6" stroke-linecap="round" stroke-linejoin="round" stroke-width="3"/><path d="m31.8 28.5h40.8v20.6h-40.8z" stroke="#d3d5e6" stroke-linecap="round" stroke-linejoin="round" stroke-width="3"/><path d="m40.1 28.4.4 2.8c.5 4 3.9 7 8 7h7.5c4 0 7.5-3 8-7l.3-2.8" stroke="#d3d5e6" stroke-linecap="round" stroke-linejoin="round" stroke-width="3"/><path d="m37.8 9.9-.2-2c-.5-4.2 2.7-7.8 6.9-7.8h15.4c4.2 0 7.4 3.7 6.9 7.8l-.2 2" stroke="#d3d5e6" stroke-linecap="round" stroke-linejoin="round" stroke-width="3"/><path d="m85.8 129.6c.3 0 .6.3.6.6 0 .4-.3.6-.6.6s-.6-.3-.6-.6c-.1-.4.2-.6.6-.6z" fill="#a4b2ea" fill-rule="nonzero"/><circle cx="85.8" cy="130.2" r="1" stroke="#d3d5e6" stroke-linecap="round" stroke-linejoin="round" stroke-width="1.5"/><circle cx="16.9" cy="93.1" r="1" stroke="#d3d5e6" stroke-linecap="round" stroke-linejoin="round" stroke-width="1.5"/><circle cx="28.4" cy="121" r="1" stroke="#d3d5e6" stroke-linecap="round" stroke-linejoin="round" stroke-width="1.5"/><circle cx="60.5" cy="109" r="1" stroke="#d3d5e6" stroke-linecap="round" stroke-linejoin="round" stroke-width="1.5"/><path d="m68.8 86.5c-26 13.4-51.1 35.3-68.5 10.2.7-19.5 43.9-25 68.5-10.2 10.6-5.5 21.3-9.5 31.8-8.4" stroke="#d3d5e6" stroke-linecap="round" stroke-linejoin="round" stroke-width="3"/><circle cx="88.6" cy="91.8" r="2.3" stroke="#d3d5e6" stroke-linecap="round" stroke-linejoin="round" stroke-width="1.5"/><circle cx="52.4" cy="127.6" r="4.3" stroke="#d3d5e6" stroke-linecap="round" stroke-linejoin="round" stroke-width="1.5"/><circle cx="18.8" cy="121" r="2.3" stroke="#d3d5e6" stroke-linecap="round" stroke-linejoin="round" stroke-width="1.5"/><circle cx="197.4" cy="82.2" r="2.3" stroke="#d3d5e6" stroke-linecap="round" stroke-linejoin="round" stroke-width="1.5"/><circle cx="235" cy="110.7" r="2.3" stroke="#d3d5e6" stroke-linecap="round" stroke-linejoin="round" stroke-width="1.5"/><circle cx="150.4" cy="98.4" r="2.3" stroke="#d3d5e6" stroke-linecap="round" stroke-linejoin="round" stroke-width="1.5"/><path d="m25.5 64.3-4.8 4.9" stroke="#d3d5e6" stroke-linecap="round" stroke-linejoin="round" stroke-width="1.5"/><path d="m26 68.2 6.1-6.1" stroke="#d3d5e6" stroke-linecap="round" stroke-linejoin="round" stroke-width="1.5"/><path d="m68.1 49.1v-5" stroke="#d3d5e6" stroke-linecap="round" stroke-linejoin="round" stroke-width="1.5"/><path d="m265.8 141.2h9.3" stroke="#d3d5e6" stroke-linecap="round" stroke-linejoin="round" stroke-width="1.5"/></g><g fill-rule="nonzero"><g fill="#fff" opacity=".5" transform="translate(26 104)"><path d="m154.4 7.3h-5.9v49.2c0 1.6 1.3 2.9 2.9 2.9 1.6 0 2.9-1.3 2.9-2.9v-49.2z"/><path d="m194 7.3h-5.9v49.2c0 1.6 1.3 2.9 2.9 2.9 1.6 0 2.9-1.3 2.9-2.9v-49.2z"/><path d="m233 7.3h-5.9v49.2c0 1.6 1.3 2.9 2.9 2.9 1.6 0 2.9-1.3 2.9-2.9v-49.2z"/><ellipse cx="25.5063" cy="28.4713" rx="24.298652" ry="13.799234" transform="matrix(.52702923 -.84984715 .84984715 .52702923 -12.132519 35.142549)"/><circle cx="50.463" cy="8.9527" r="4.099773" transform="matrix(.52702923 -.84984715 .84984715 .52702923 16.259097 47.120202)"/></g><g transform="translate(92 1)"><g fill="#19d2ff"><path d="m128 50.6c3.3 0 6 2.7 6 6 0 1.7-.7 3.2-1.8 4.2-1.1 1.1-2.6 1.8-4.2 1.8h-5.3-12-44.4-38.9c-3.3 0-6-2.7-6-6s2.7-6 6-6h38.9 44.4 12z"/><path d="m122.6 177.8c5.6 0 10.8 2.3 14.5 6s6 8.8 6 14.5h-142.2c0-11.3 9.2-20.5 20.5-20.5h6.2 38.4 44.6z"/><path d="m110.6 62.7h12v115.1h-12z"/><path d="m122.6 45.4v5.3h-12v-5.3c0-3.3 2.7-6 6-6 3.4-.1 6 2.6 6 6z"/></g><path d="m72.8 25.8c1.4 1.4 2.3 3.4 2.3 5.6 0 4.4-3.6 7.9-8 7.9h-.9-38.9-.9c-2.2 0-4.2-.9-5.6-2.3s-2.3-3.4-2.3-5.6c0-4.4 3.6-8 8-8h40.7c2.1 0 4.1.9 5.6 2.4z" fill="#ecf7ff"/><path d="m70.5 167.1c1.1 1.1 1.8 2.7 1.8 4.4 0 3.5-2.8 6.2-6.2 6.2h-38.4c-1.7 0-3.3-.7-4.4-1.8s-1.8-2.7-1.8-4.4c0-3.5 2.8-6.2 6.2-6.2h19.2 19.1c1.8-.1 3.3.7 4.5 1.8z" fill="#b5dcff"/><path d="m66.3 62.7v19.3c-5.3-4.8-15.4-4.4-23.5-.3-4.3-1.7-9.2-2.8-15.4-1.2v-17.8z" fill="#ecf7ff"/><path d="m27.4 39.3h38.9v11.3h-38.9z" fill="#ecf7ff"/><path d="m66.3 82c-9.5 7.4-15.6 2.7-23.5-.3 8.1-4.1 18.2-4.5 23.5.3z" fill="url(#a)"/><path d="m53.5 158.5c0 3.7-3 6.7-6.7 6.7s-6.7-3-6.7-6.7 6.7-16.3 6.7-16.3 6.7 12.6 6.7 16.3z" fill="url(#b)"/><path d="m42.8 81.7c7.8 3 13.9 7.7 23.5.3v31.7c0 10.7-8.7 19.5-19.4 19.5s-19.5-8.7-19.5-19.5v-33.2c6.2-1.7 11.1-.5 15.4 1.2z" fill="url(#c)"/><circle cx="30.9" cy="10" fill="#90ff8c" r="3.5"/><circle cx="44.1" cy="15.5" fill="#90ff8c" r="2.4"/><circle cx="77.5" cy="2.8" fill="#90ff8c" r="2.4"/></g><g transform="translate(93 2)"><path d="m109.6 61.7h12.6v5.7h-12.6z" fill="#004075" opacity=".3"/><path d="m42.1 27.8h32.2l-6.1-5.3h-45.9l-4.8 5.3h8.6c1.4 0 2.5 1.2 2.5 2.5 0 3.1 1.2 5.8 3.8 8h8c-.9-2.5-1.2-5.3-.7-8.5.1-1.2 1.1-2 2.4-2z" fill="#fff"/><path d="m26.9 38.3h38.4v5.7h-38.4z" fill="#004075" opacity=".2"/><path d="m26.9 61.1h38.4v6.3h-38.4z" fill="#004075" opacity=".2"/><path d="m109.6 155.8c8.5-4.3 11.6-14.4 12.6-26.9v47.9h-12.6z" fill="#004075" opacity=".15"/><g fill="#fff"><circle cx="28.9" cy="8.1" opacity=".8" r="1.1"/><circle cx="42.5" cy="14.3" opacity=".8" r="1"/><circle cx="76.1" cy="1.8" opacity=".8" r="1"/><path d="m114.1 49.6v-5.6c.7-2.9 3.2-3.9 6.4-4.1l-6.2-1.5-4.1 2.8-1.3 6.3.5 2.6z" opacity=".65"/><path d="m71.5 169.4c-.6-.2-1.3-.3-1.9-.3h-40.7c-2.2 0-4 1.8-4 4v2.3c0 .7.1 1.3.3 1.9-.9-.3-1.8-.8-2.5-1.5-1.1-1.1-1.8-2.7-1.8-4.4 0-3.5 2.8-6.2 6.2-6.2h38.4c1.7 0 3.3.7 4.4 1.8.7.6 1.3 1.4 1.6 2.4z" opacity=".65"/></g><path d="m83.3 197.3c24.8 0 24.3-15.5 24.3-20.7h16.4l10.7 4.6 6 8.4 1.4 8z" fill="#004075" opacity=".1"/><path d="m139.3 186c-3.3-2.3-7.4-3.7-11.8-3.7h-103.2c-9.2 0-16.8 6.7-18.2 15.5h-5.2c0-11.3 9.2-20.5 20.5-20.5h101.3c5.6 0 10.8 2.3 14.5 6 .7.8 1.4 1.7 2.1 2.7z" fill="#fff" opacity=".65"/><path d="m132.7 53.9c-.6-.2-1.1-.3-1.8-.3h-102.8c-2.1 0-3.8 1.7-3.8 3.8v2.2c0 .6.1 1.2.3 1.8-2.5-.8-4.3-3-4.3-5.8 0-3.3 2.7-6 6-6h100.7c2.7 0 5 1.8 5.7 4.3z" fill="#fff" opacity=".65"/><path d="m65.3 106.7c0 10.7-8.7 19.5-19.4 19.5-10.8 0-19.5-8.7-19.5-19.5v5c0 10.7 8.7 19.5 19.5 19.5 10.7 0 19.4-8.7 19.4-19.5z" fill="#fffd8c" opacity=".65"/><path d="m61.7 164.2h-31.1c0 2.7 2.2 4.8 4.8 4.8h21.5c2.6.1 4.8-2.1 4.8-4.8z" fill="#fffd8c" opacity=".5"/></g></g><g stroke-linecap="round" stroke-linejoin="round" transform="translate(2 1)"><path d="m317 198.3h-290" stroke="#454c7a" stroke-width="4"/><path d="m13 198.3h-13" stroke="#454c7a" stroke-width="4"/><g stroke="#484d78"><path d="m212.6 177.8h-101.2c-11.3 0-20.5 9.2-20.5 20.5h142.2c0-11.4-9.1-20.5-20.5-20.5z" stroke-width="4"/><path d="m117.4 50.6v-11.3h38.9v11.3" stroke-width="4"/><path d="m156.3 62.7v51.1c0 10.7-8.7 19.5-19.5 19.5s-19.5-8.7-19.5-19.5v-51.1" stroke-width="4"/><path d="m157.1 23.4h-40.7c-4.4 0-8 3.6-8 8 0 4.4 3.6 8 8 8h40.7c4.4 0 8-3.6 8-8 0-4.4-3.6-8-8-8z" stroke-width="4"/><path d="m200.6 50.6v-5.3c0-3.3 2.7-6 6-6s6 2.7 6 6v5.3" stroke-width="4"/><path d="m212.6 62.7v115.1h-12v-115.1" stroke-width="4"/><path d="m111.4 56.7c0-3.3 2.7-6 6-6h100.6c3.3 0 6 2.7 6 6 0 3.3-2.7 6-6 6h-100.6c-3.4 0-6-2.7-6-6z" stroke-width="4"/><path d="m117.4 80.5c17.6-4.7 24.1 13 38.9 1.5-5.3-4.8-15.4-4.4-23.5-.3" stroke-width="4"/><circle cx="126.8" cy="97.1" r="2.4" stroke-width="2"/><circle cx="134.1" cy="15.5" r="2.4" stroke-width="2"/><circle cx="146.8" cy="113.3" r="3.5" stroke-width="2"/><circle cx="120.9" cy="10" r="3.5" stroke-width="2"/><circle cx="167.5" cy="2.8" r="2.3" stroke-width="2"/><path d="m156 165.2h-38.4c-3.5 0-6.2 2.8-6.2 6.2 0 3.5 2.8 6.2 6.2 6.2h38.4c3.5 0 6.2-2.8 6.2-6.2.1-3.4-2.7-6.2-6.2-6.2z" stroke-width="4"/><path d="m143.5 158.5c0 3.7-3 6.7-6.7 6.7s-6.7-3-6.7-6.7 6.7-16.3 6.7-16.3 6.7 12.6 6.7 16.3z" stroke-width="4"/><path d="m136.8 158.7v6.5" stroke-width="2"/><path d="m208.2 62.7v5.7" stroke-width="2"/><path d="m223.7 192.1h8.5" stroke-width="2"/><path d="m216.7 192.1h3.1" stroke-width="2"/><path d="m98.4 192.1h-6.6" stroke-width="2"/></g></g><g transform="translate(119 46)"><path d="m17.9 23.4v43.1c0 3.2-2.6 5.7-5.7 5.7-3.2 0-5.7-2.6-5.7-5.7v-43.1z" fill="#fff" fill-rule="nonzero" opacity=".75"/><path d="m6.4 0h11.5v5.9h-11.5z" fill="#fff" fill-rule="nonzero" opacity=".75"/><path d="m.4 5.6h100.5" stroke="#484d78" stroke-linecap="round" stroke-linejoin="round" stroke-width="4"/></g></g></svg>