<svg height="199" viewBox="0 0 279 199" width="279" xmlns="http://www.w3.org/2000/svg" xmlns:xlink="http://www.w3.org/1999/xlink"><linearGradient id="a" x1="7.986591%" x2="92.645682%" y1="19.876793%" y2="110.066667%"><stop offset="0" stop-color="#ff7163"/><stop offset="1" stop-color="#ff4726"/></linearGradient><linearGradient id="b" x1="33.590556%" x2="67.375065%" y1="-.743022%" y2="101.363118%"><stop offset="0" stop-color="#19fff4"/><stop offset="1" stop-color="#009dff"/></linearGradient><g fill="none" fill-rule="evenodd"><g fill-rule="nonzero" transform="translate(16 76)"><g fill="#fff8e7"><path d="m235.3 27.7c2.5 0 4.5 2 4.5 4.5 0 1.2-.5 2.4-1.3 3.2s-1.9 1.3-3.2 1.3h-8.1-7.2-11.2-19.8-11-7.2-8.1c-2.5 0-4.5-2-4.5-4.5 0-1.2.5-2.4 1.3-3.2s1.9-1.3 3.2-1.3h8.1 7.2 11.1 19.8 11.1 7.2z"/><path d="m227.5 107.7c6.8 0 12.3 5.5 12.3 12.3v.3h-81.7v-.3c0-6.8 5.5-12.3 12.3-12.3h.3 7.2 42.1 7.2z"/><path d="m220 36.7h7.2v71.1h-7.2z"/><path d="m227.2 24.3v3.3h-7.2v-3.3c0-2 1.6-3.6 3.6-3.6s3.6 1.6 3.6 3.6z"/></g><path d="m212.2 12.4c.7.7 1.2 1.7 1.2 2.9 0 2.2-1.8 4-4 4h-.4-19.8-.4c-1.1 0-2.1-.4-2.9-1.2-.7-.7-1.2-1.7-1.2-2.9 0-2.2 1.8-4 4-4h20.7c1.1 0 2.1.4 2.8 1.2z" fill="#ecf7ff"/><path d="m208.9 36.7v21.7c-7.9 6.1-12.5-1.8-19.8 1.5v-23.2z" fill="#ecf7ff"/><path d="m189.1 19.3h19.8v8.4h-19.8z" fill="#ecf7ff"/><path d="m170.8 36.7h7.2v71.1h-7.2z" fill="#fff8e7"/><path d="m178 24.3v3.3h-7.2v-3.3c0-2 1.6-3.6 3.6-3.6s3.6 1.6 3.6 3.6z" fill="#fff8e7"/><path d="m52.3 88.1c-16.1-7.6-30-17.9-40.3-7.9l26.8-42c1.7-2.7 2.6-5.8 2.6-9v-13.8h22.4v13.8c0 3.2.9 6.3 2.6 9l29.7 46.7-.3.2c-14.1-6.4-29.5-2.1-43.5 3.3z" fill="#f3fcff"/><path d="m69.5 5.7v4.2c0 3-2.4 5.4-5.4 5.4h-.2-22.4-.2c-3 0-5.4-2.4-5.4-5.4v-4.2c0-3 2.4-5.4 5.4-5.4h22.9c2.9 0 5.3 2.5 5.3 5.4z" fill="#f3fcff"/><path d="m52.3 88.1.1.2c-19.8 7.5-37.1 16.9-45.1.7l-.7-.4 5.4-8.5c10.3-9.9 24.2.4 40.3 8z" fill="#e7f2ff"/><path d="m102.4 94.5-6.1-9.6-.3.2c-14.1-6.4-29.5-2.1-43.5 3.3-19.8 7.5-37.1 16.9-45.1.7l-.7-.4-3.7 5.8c-7.1 11.2.9 25.9 14.2 25.9h71c13.3-.1 21.3-14.7 14.2-25.9z" fill="#e7f2ff"/><path d="m189.1 59.8v28.7c0 5.5 4.4 9.9 9.9 9.9s9.9-4.4 9.9-9.9v-30.2c-7.9 6.1-12.5-1.7-19.8 1.5z" fill="#ffeef4"/></g><g fill-rule="nonzero" transform="translate(52 76)"><path d="m15 9v-3.6c0-.7.6-1.2 1.3-1.2h16.6l-3.5-3.8h-10.8c.5-.2 1.1-.3 1.7-.3h-8.9c-.6 0-1.2.1-1.8.3h-7.1l-1.9 3.8h4.1c.7 0 1.3.5 1.4 1.2v3.6c0 3 2.4 5.4 5.4 5.4h9c-3.1 0-5.5-2.4-5.5-5.4z" fill="#fff"/><path d="m153.2 19h19.5v8.3h-19.5z" fill="#212121" opacity=".05"/><path d="m153 36.4h14.8v5h-14.8z" fill="#212121" opacity=".05"/><path d="m156 95.4c.6.1 1.3.2 2 .2 5.5 0 9.9-4.4 9.9-9.9v-49.3h5v51.9c0 5.5-4.4 9.9-9.9 9.9-2.8 0-5.2-1.1-7-2.8z" fill="#212121" opacity=".05"/><path d="m157 15.8v-1.7c0-.3.3-.6.7-.6h19.1l-1.8-1.8h-16.1c.3-.1.6-.1.9-.1h-4.6c-.3 0-.6.1-.9.1h-3.6l-1 1.8h2.1c.4 0 .7.3.7.6v1.7c0 1.4 1.2 2.6 2.8 2.6h4.6c-1.7 0-2.9-1.2-2.9-2.6z" fill="#fff"/><g fill="#212121"><path d="m5.2 15.3h22.7v6.2h-22.7z" opacity=".05"/><path d="m122.1 32.2h77.9c2.3-.3 3-1.4 2.8-2.8l.9 3.6-2.9 3.5h-75.8z" opacity=".05"/><path d="m134.8 36.7h7.2v4.7h-7.2z" opacity=".05"/><path d="m184 36.7h7.2v4.7h-7.2z" opacity=".05"/><path d="m203.8 115.6h-80.9l-.8 4.4h82.4z" opacity=".05"/></g></g><g stroke="#d3d5e6" stroke-linecap="round" stroke-linejoin="round" transform="translate(16 76)"><path d="m63.5 15.3h-21.7c-3.3 0-6-2.7-6-6v-3c0-3.3 2.7-6 6-6h21.7c3.3 0 6 2.7 6 6v3c0 3.3-2.7 6-6 6z" stroke-width="3"/><path d="m41.5 15.3v13.8c0 3.2-.9 6.3-2.6 9l-35.9 56.4c-7.1 11.2.9 25.9 14.2 25.9h71c13.3 0 21.3-14.7 14.2-25.9l-35.8-56.3c-1.7-2.7-2.6-5.8-2.6-9v-13.8" stroke-width="3"/><path d="m12.1 80.2c10.2-9.9 24.1.3 40.3 7.9" stroke-width="3"/><circle cx="9" cy="101.7" r="2.6" stroke-width="1.5"/><circle cx="44.9" cy="104.4" r="1.9" stroke-width="1.5"/><circle cx="82.4" cy="99.9" r="1" stroke-width="1.5"/><circle cx="41.5" cy="111.9" r="1" stroke-width="1.5"/><circle cx="17" cy="101.7" r="1" stroke-width="1.5"/><circle cx="28.5" cy="113" r="1" stroke-width="1.5"/><g stroke-width="3"><path d="m7.4 89.1c13.5 27.6 54.5-19.5 88.6-4"/><path d="m227.2 107.7h-56.5c-7 0-12.6 5.6-12.6 12.6h81.7c0-6.9-5.6-12.6-12.6-12.6z"/><path d="m178 24.3v3.3h-7.2v-3.3c0-2 1.6-3.6 3.6-3.6s3.6 1.6 3.6 3.6z"/><path d="m170.8 36.7h7.2v71.1h-7.2z"/><path d="m0 .7v71h7.2v-71" transform="translate(220 36)"/><path d="m220 27.7v-3.3c0-2 1.6-3.6 3.6-3.6s3.6 1.6 3.6 3.6v3.3"/><path d="m189.1 27.7v-8.4h19.8v8.4"/><path d="m208.9 36.7v51.9c0 5.5-4.4 9.9-9.9 9.9s-9.9-4.4-9.9-9.9v-51.9"/><path d="m209.3 11.2h-20.7c-2.2 0-4 1.8-4 4 0 2.2 1.8 4 4 4h20.7c2.2 0 4-1.8 4-4 .1-2.2-1.7-4-4-4z"/><path d="m203 78.5h.1"/></g><circle cx="196.1" cy="69.6" r="2" stroke-width="1.5"/><path d="m174.3 32.2h.1" stroke-width="3"/><path d="m223.6 32.2h.1" stroke-width="3"/><path d="m189.1 59.8c7.3-3.3 11.9 4.6 19.8-1.5" stroke-width="3"/><path d="m235.3 36.7h-72.7c-2.5 0-4.5-2-4.5-4.5 0-2.5 2-4.5 4.5-4.5h72.7c2.5 0 4.5 2 4.5 4.5 0 2.5-2 4.5-4.5 4.5z" stroke-width="3"/><path d="m218.1 115.6h20" stroke-width="1.5"/><path d="m44 53.4 8.1 8.1" stroke-width="1.5"/><path d="m46.4 60.5 7 6.9" stroke-width="1.5"/><path d="m55.1 19.2h8.8" stroke-width="1.5"/><path d="m60.5 114.3 6 6" stroke-width="1.5"/><path d="m230.8 112.9h6.7" stroke-width="1.5"/><path d="m224.1 36.7v4.2" stroke-width="1.5"/></g><g fill-rule="nonzero"><g fill="#fff" opacity=".5" transform="translate(33 117)"><path d="m20.7 9.6-19.5 29.9c-1.8 2.8.2 6.5 3.5 6.5h11c3.7 0 6.9-2.5 7.8-6.1l6.2-25.9c.4-1.6-.2-3.4-1.6-4.4l-1.4-1.1c-1.9-1.4-4.7-.9-6 1.1z"/><path d="m182 .4h-5.3v44.6c0 1.3 1 2.3 2.3 2.3h.6c1.3 0 2.3-1 2.3-2.3v-44.6z"/></g><g transform="translate(67 2)"><path d="m135.8 141.6c1.1 1.2 1.9 2.7 1.9 4.5 0 3.5-2.8 6.3-6.3 6.3h-36.8c0-4.7-1.5-9.1-4-12.6h40.8c1.7 0 3.3.7 4.4 1.8z" fill="#b5d2e0"/><path d="m118.3 177.8c4.6 0 8.2 3.7 8.2 8.2 0 2.3-.9 4.3-2.4 5.8s-3.6 2.4-5.8 2.4h-91.4c-4.6 0-8.2-3.7-8.2-8.2 0-2.3.9-4.3 2.4-5.8s3.6-2.4 5.8-2.4h23.7 44z" fill="#f7ad74"/><path d="m115.4 69.5c1.4 1.4 2.1 3.3 2.1 5.2s-.7 3.8-2.1 5.2l-31.2 31.2c-2.9 2.9-7.5 2.9-10.4 0-1.4-1.4-2.1-3.3-2.1-5.2 0-1.8.7-3.7 2.1-5.1 0 0 .1-.1.1-.1l31.2-31.2c2.8-2.8 7.4-2.8 10.3 0z" fill="#1ab3ff"/><path d="m94.6 152.4v25.4h-44v-25.4c0-.2 0-.4 0-.5.3-11.9 10-21.5 22-21.5 6.1 0 11.6 2.5 15.6 6.4.9.9 1.7 1.9 2.5 2.9 2.4 3.6 3.9 8 3.9 12.7zm-13.2-4.4c0-4.9-3.9-8.8-8.8-8.8s-8.8 4-8.8 8.8c0 4.9 3.9 8.8 8.8 8.8 4.8.1 8.8-3.9 8.8-8.8z" fill="url(#a)"/><path d="m72.5 139.2c4.9 0 8.8 4 8.8 8.8 0 4.9-3.9 8.8-8.8 8.8s-8.8-3.9-8.8-8.8c.1-4.8 4-8.8 8.8-8.8z" fill="#d1d1d1"/><path d="m55.1 130.4h17.4c-12 0-21.7 9.6-22 21.5-28.1-2.3-50.2-25.9-50.2-54.6 0-18.7 9.4-35.2 23.7-45.1l15.8 15.8c-10.6 5.5-17.8 16.6-17.8 29.4 0 18.2 14.8 33 33.1 33z" fill="#66e6ff"/><path d="m39.2 21-14 14z" fill="#d7befc"/><path d="m39.2 20.9v.1l-14 14-13.2-13.3 14-14z" fill="#b5d2e0"/><path d="m27.3 1.4c.7.7 1 1.6 1 2.5s-.3 1.8-1 2.5l-1.3 1.3-14 14-1.3 1.3c-1.4 1.4-3.6 1.4-5 0-.7-.7-1-1.6-1-2.5s.4-1.8 1-2.5l16.6-16.6c1.4-1.4 3.6-1.4 5 0z" fill="#1ad3ff"/><path d="m53.2 16.6 52.4 52.4-.6.6-31.2 31.2s-.1.1-.1.1l-.5.5-33.5-33.5-15.7-15.8-3.2-3.2c-2.7-2.7-2.7-7 0-9.6l4.4-4.4 14-14 4.4-4.4c2.7-2.6 7-2.6 9.6.1z" fill="url(#b)"/></g><g transform="translate(67 2)"><path d="m10.330283 14.2151h20.499803v5.19995h-20.499803z" fill="#1e1e1e" opacity=".2" transform="matrix(.70710678 -.70710678 .70710678 .70710678 -5.862257 19.47741)"/><path d="m40.6 68.7c17.4 7.6 41.4 7.1 54.9-9.8l9.8 9.8-32.8 31.9z" fill="#004075" opacity=".08"/><path d="m93.3 145h44.1l-2.9-4.9h-43.1z" fill="#fff" opacity=".5"/><path d="m7.5 24.6 21.6-21.6-5.2-2.9-19.5 19.7z" fill="#fff" opacity=".4"/><path d="m11.5 64.1 1.6 1.6c2.9 2.9 3.4 7.4 1.3 10.9-3.2 5.4-4.8 11.3-5.1 17.6-.3 4.8-4.1 8.6-8.9 8.6-1.1-14.2 2.6-27.1 11.1-38.7z" fill="#fff" opacity=".35"/><path d="m19.2 55.8c5.9 5.9 7.7 14.9 4.1 22.4-2.4 5-3.8 10.9-3.3 18.1l9.9-20.5 9.9-8-16-16z" fill="#004075" opacity=".1"/><path d="m65.5 57.6c2.7 2.7 7.2 2.7 9.9 0 2.7-2.7 2.7-7.2 0-9.9-2.7-2.7-7.2-2.7-9.9 0-2.8 2.7-2.8 7.2 0 9.9z" fill="#fff" opacity=".4"/><path d="m114.8 69.2-15.6 15.6c-2.9 2.9-7.5 2.9-10.4 0l16.5-16.5z" fill="#fff" opacity=".25"/><g fill="#004075"><path d="m77.5 97.1c3.3 3.3 9.2 4.3 13.5 0l25.7-25.7.3 6.1-34.8 35.1h-7.7l-2.9-7.6z" opacity=".12"/><path d="m19.3 189.5h61.4c9.9 0 19.4-3.9 26.4-10.9h14.6l5 5v5.9l-4.9 4.9h-99.8z" opacity=".12"/><path d="m94.3 154.5-14.4-14.5-1.5 1.5 2.6 3.9-.2 7.6-7.3 3.2-8.7-.6 17.2 17.2 5.1 5 .1.2h7.8v-19.7z" opacity=".2"/></g><path d="m56.8 176.8v-23.9c0-5.4 2.2-10.7 6.1-14.5 2.8-2.7 6.2-5.3 10-7.8l-9 1.6-8.7 6.9-4.5 10.3v2.5 24.9z" fill="#fff" opacity=".3"/><path d="m79.1 141-12.5 12.4 2.7 2.7 11.4-11.4z" fill="#fff" opacity=".75"/><path d="m18.6 185.8h47.8c4.5 0 8.1-3.6 8.1-8.1h-50.3z" fill="#fff" opacity=".35"/><path d="m40.6 126.3c0 .3 0 .6-.1.9-6.6-2.9-12.1-8.1-16.9-14.7 1.5 3.9 3.3 7.7 5.6 11.3 4.8 7.7-3.1 17.1-11.4 13.4-.1 0-.1-.1-.2-.1 10.3 8.1 21.1 13.8 32.9 14.7.3-9.8 6-16.1 15-20.3-9.1-.2-17.2-1.7-24.9-5.2z" fill="#004075" opacity=".08"/><path d="m65 40.2c0 1.8-.7 3.6-2.1 5-2.7 2.8-7.2 2.8-9.9 0l-11.4-11.4c-1.5-1.5-3.9-1.5-5.5 0 0 0-.1.1-.1.1l-15.1 15.1-2.1-7.5 24.9-24.9 4.8-2 4.9 2-1.6 1.6s-.1.1-.1.1c-1.4 1.5-1.4 4 0 5.5l11.4 11.4c1.2 1.4 1.9 3.2 1.9 5z" fill="#fff" opacity=".4"/><path d="m68.6 152.6c-1-1.1-1.6-2.5-1.6-4.1 0-3.3 2.7-6 6-6 1.8 0 3.3.8 4.4 2l2.1-1.9c-1.6-1.8-3.9-2.9-6.5-2.9-4.9 0-8.8 4-8.8 8.8 0 2.3.9 4.4 2.3 6z" fill="#fff" opacity=".75"/></g></g><g stroke="#38548c" stroke-linecap="round" stroke-linejoin="round" transform="translate(-5 2)"><g stroke-width="4"><path d="m7 194.3h52.2"/><path d="m66.2 194.3h143.5"/><path d="m190.3 194.3h-91.4c-4.6 0-8.3-3.7-8.3-8.3 0-4.6 3.7-8.3 8.3-8.3h91.4c4.6 0 8.3 3.7 8.3 8.3-.1 4.6-3.8 8.3-8.3 8.3z"/><path d="m166.6 177.8h-44v-25.4c0-12.2 9.9-22 22-22 12.2 0 22 9.9 22 22z"/><circle cx="144.6" cy="148.1" r="8.8"/><path d="m138.3 154.3 12.5-12.5"/><path d="m96 52.1c-14.3 9.9-23.7 26.4-23.7 45.1 0 28.7 22.1 52.3 50.2 54.6"/><path d="m111.8 67.9c-10.6 5.5-17.8 16.6-17.8 29.4 0 18.3 14.9 33.2 33.2 33.2h17.4"/><path d="m166.6 152.4h36.8c3.5 0 6.3-2.8 6.3-6.3 0-1.7-.7-3.3-1.8-4.5-1.2-1.1-2.7-1.8-4.5-1.8h-40.8"/><path d="m177.6 69-32.4 32.4-52.4-52.4c-2.7-2.7-2.7-7 0-9.6l22.8-22.8c2.7-2.7 7-2.7 9.6 0z"/><path d="m187.4 79.9-31.2 31.2c-2.9 2.9-7.5 2.9-10.4 0-2.9-2.9-2.9-7.5 0-10.4l31.2-31.2c2.9-2.9 7.5-2.9 10.4 0 2.9 2.9 2.9 7.5 0 10.4z"/><path d="m98 7.7 13.3 13.2-14.1 14.1-13.3-13.3"/><path d="m99.3 6.4-16.7 16.6c-1.4 1.4-3.6 1.4-5 0-1.4-1.4-1.4-3.6 0-5l16.6-16.6c1.4-1.4 3.6-1.4 5 0 1.5 1.3 1.5 3.6.1 5z"/><path d="m223.7 194.3h57.9"/></g><path d="m161.2 167.8v10" stroke-width="2"/><path d="m157.2 172.8v5" stroke-width="2"/><path d="m165.3 145h9.9" stroke-width="2"/><path d="m203.5 145h6.1" stroke-width="2"/><path d="m95.8 17.2 5.9-5.8" stroke-width="2"/><path d="m100.9 17.5 3.4-3.5" stroke-width="2"/><path d="m175.2 189.5h22.2" stroke-width="2"/><path d="m101 189.5h-9.7" stroke-width="2"/><path d="m173.4 73.2-4.5-4.5" stroke-width="2"/></g></g></svg>