<!DOCTYPE svg PUBLIC "-//W3C//DTD SVG 20010904//EN" "http://www.w3.org/TR/2001/REC-SVG-20010904/DTD/svg10.dtd">
<svg version="1.0" xmlns="http://www.w3.org/2000/svg" width="49px" height="50px" viewBox="0 0 490 500" preserveAspectRatio="xMidYMid meet">
<g id="layer101" fill="#000000" stroke="none">
 <path d="M105 368 c-51 -136 -59 -236 -23 -288 31 -45 61 -60 123 -59 55 0 136 27 143 47 3 9 -14 12 -60 12 -63 0 -88 11 -88 38 0 10 3 10 16 -2 38 -39 134 6 134 63 0 37 -17 51 -60 51 -36 0 -80 -29 -80 -52 0 -6 -3 -9 -6 -5 -3 3 1 28 11 56 l16 50 47 -14 c66 -20 86 -47 78 -107 -9 -62 6 -62 44 -1 37 57 39 104 7 163 -28 54 -99 105 -176 126 -31 8 -63 18 -72 20 -12 3 -25 -19 -54 -98z"/>
 </g>

</svg>