<!DOCTYPE svg PUBLIC "-//W3C//DTD SVG 20010904//EN" "http://www.w3.org/TR/2001/REC-SVG-20010904/DTD/svg10.dtd">
<svg version="1.0" xmlns="http://www.w3.org/2000/svg" width="48px" height="50px" viewBox="0 0 480 500" preserveAspectRatio="xMidYMid meet">
<g id="layer101" fill="#1a1a1a" stroke="none">
 <path d="M0 250 l0 -250 240 0 240 0 0 250 0 250 -240 0 -240 0 0 -250z"/>
 </g>
<g id="layer102" fill="#282828" stroke="none">
 <path d="M0 250 l0 -250 240 0 240 0 0 250 0 250 -240 0 -240 0 0 -250z m268 213 c-16 -2 -40 -2 -55 0 -16 2 -3 4 27 4 30 0 43 -2 28 -4z m-91 -10 c-4 -3 -10 -3 -14 0 -3 4 0 7 7 7 7 0 10 -3 7 -7z m140 0 c-4 -3 -10 -3 -14 0 -3 4 0 7 7 7 7 0 10 -3 7 -7z m38 -13 c3 -6 -1 -7 -9 -4 -18 7 -21 14 -7 14 6 0 13 -4 16 -10z m-245 -13 c0 -2 -12 -14 -27 -28 l-28 -24 24 28 c23 25 31 32 31 24z m290 -22 c13 -14 21 -25 18 -25 -2 0 -15 11 -28 25 -13 14 -21 25 -18 25 2 0 15 -11 28 -25z m-183 -1 c-3 -3 -12 -4 -19 -1 -8 3 -5 6 6 6 11 1 17 -2 13 -5z m60 0 c-3 -3 -12 -4 -19 -1 -8 3 -5 6 6 6 11 1 17 -2 13 -5z m-110 -22 c-22 -24 -21 -50 1 -76 17 -21 17 -21 -5 -2 -13 11 -23 28 -23 39 0 19 26 57 38 57 3 0 -2 -8 -11 -18z m138 8 c3 -5 4 -10 1 -10 -3 0 -8 5 -11 10 -3 6 -4 10 -1 10 3 0 8 -4 11 -10z m-42 -17 c-7 -2 -21 -2 -30 0 -10 3 -4 5 12 5 17 0 24 -2 18 -5z m-215 -28 c-6 -14 -13 -23 -15 -21 -5 5 15 46 22 46 3 0 -1 -11 -7 -25z m155 4 c-4 -12 0 -25 8 -30 11 -6 11 -9 1 -9 -16 0 -26 25 -18 45 8 23 15 18 9 -6z m97 -3 c0 -8 -8 -20 -17 -27 -16 -13 -17 -12 -4 3 7 10 11 25 7 33 -3 9 -2 13 4 10 6 -3 10 -12 10 -19z m40 -11 c0 -13 -3 -26 -7 -28 -5 -3 -8 10 -8 28 0 18 3 31 8 28 4 -2 7 -15 7 -28z m98 10 c-3 -3 -9 2 -12 12 -6 14 -5 15 5 6 7 -7 10 -15 7 -18z m-191 -42 c-4 -3 -10 -3 -14 0 -3 4 0 7 7 7 7 0 10 -3 7 -7z m-220 -80 c-2 -16 -4 -3 -4 27 0 30 2 43 4 28 2 -16 2 -40 0 -55z m430 0 c-2 -16 -4 -3 -4 27 0 30 2 43 4 28 2 -16 2 -40 0 -55z m-250 60 c-4 -3 -10 -3 -14 0 -3 4 0 7 7 7 7 0 10 -3 7 -7z m93 -7 c0 -3 -5 -8 -12 -12 -7 -4 -8 -3 -4 4 7 12 16 16 16 8z m-70 -20 c0 -2 -9 -6 -20 -9 -11 -3 -18 -1 -14 4 5 9 34 13 34 5z m75 -26 c10 -11 16 -20 13 -20 -3 0 -13 9 -23 20 -10 11 -16 20 -13 20 3 0 13 -9 23 -20z m32 -62 c-2 -18 -4 -6 -4 27 0 33 2 48 4 33 2 -15 2 -42 0 -60z m40 -10 c-2 -18 -4 -4 -4 32 0 36 2 50 4 33 2 -18 2 -48 0 -65z m-204 52 c-4 -15 -13 -20 -37 -19 -27 2 -28 2 -6 6 14 3 29 11 33 19 11 20 16 17 10 -6z m55 0 c-7 -10 -14 -17 -17 -15 -4 4 18 35 25 35 2 0 -1 -9 -8 -20z m50 -11 c-3 -8 -7 -3 -11 10 -4 17 -3 21 5 13 5 -5 8 -16 6 -23z m-17 -42 c-10 -9 -11 -8 -5 6 3 10 9 15 12 12 3 -3 0 -11 -7 -18z m189 15 c0 -5 -7 -17 -15 -28 -14 -18 -14 -17 -4 9 12 27 19 34 19 19z m-133 -19 c-4 -3 -7 0 -7 7 0 7 3 10 7 7 3 -4 3 -10 0 -14z m-263 -9 c3 -8 2 -12 -4 -9 -6 3 -10 10 -10 16 0 14 7 11 14 -7z m181 -2 c-3 -3 -11 0 -18 7 -9 10 -8 11 6 5 10 -3 15 -9 12 -12z m-59 -24 l29 -33 -32 29 c-31 28 -38 36 -30 36 2 0 16 -15 33 -32z m-86 -23 c13 -14 21 -25 18 -25 -2 0 -15 11 -28 25 -13 14 -21 25 -18 25 2 0 15 -11 28 -25z m313 4 c-19 -19 -31 -22 -105 -20 -45 1 -85 5 -88 7 -2 3 35 4 83 3 71 -1 92 1 105 15 9 9 19 16 21 16 3 0 -4 -10 -16 -21z m-258 -47 c-3 -3 -11 0 -18 7 -9 10 -8 11 6 5 10 -3 15 -9 12 -12z m32 -9 c-4 -3 -10 -3 -14 0 -3 4 0 7 7 7 7 0 10 -3 7 -7z m140 0 c-4 -3 -10 -3 -14 0 -3 4 0 7 7 7 7 0 10 -3 7 -7z m-49 -10 c-16 -2 -40 -2 -55 0 -16 2 -3 4 27 4 30 0 43 -2 28 -4z"/>
 </g>
<g id="layer103" fill="#505050" stroke="none">
 <path d="M0 250 l0 -250 240 0 240 0 0 250 0 250 -240 0 -240 0 0 -250z m328 204 c176 -73 176 -335 0 -408 -48 -20 -128 -20 -176 0 -173 72 -178 326 -7 405 49 23 133 24 183 3z"/>
 <path d="M172 384 c-37 -26 -26 -65 26 -89 43 -20 56 -45 24 -45 -21 0 -52 -29 -52 -48 0 -7 -13 -12 -30 -12 -16 0 -30 -3 -29 -7 0 -5 23 -27 50 -50 l50 -43 84 0 c50 0 85 4 85 10 0 6 -3 10 -7 10 -5 0 -8 31 -8 70 0 83 -19 95 -23 14 -2 -37 -7 -54 -15 -51 -7 2 -12 18 -12 35 -1 17 -8 39 -18 50 -23 25 -22 34 8 62 32 30 32 63 -1 89 -32 26 -100 28 -132 5z m122 -26 c13 -21 -17 -58 -46 -58 -48 0 -74 40 -46 68 18 18 79 11 92 -10z m-20 -141 c13 -21 -11 -70 -36 -75 -25 -5 -42 33 -27 61 22 40 44 45 63 14z"/>
 </g>
<g id="layer104" fill="#717171" stroke="none">
 <path d="M0 250 l0 -250 240 0 240 0 0 250 0 250 -240 0 -240 0 0 -250z m346 197 c51 -26 101 -93 113 -148 31 -142 -73 -270 -218 -270 -72 -1 -125 24 -174 82 -111 129 -32 333 138 359 49 7 100 -1 141 -23z"/>
 <path d="M169 381 c-20 -16 -22 -23 -14 -47 8 -22 20 -31 48 -38 44 -11 51 -40 12 -50 -14 -4 -31 -18 -37 -31 -8 -19 -19 -25 -42 -25 l-31 -1 48 -44 49 -45 81 0 82 0 3 75 c3 65 1 75 -13 75 -14 0 -16 -9 -13 -60 1 -33 1 -60 -3 -60 -14 0 -29 27 -29 55 0 19 -8 39 -20 50 -19 18 -19 18 10 52 36 41 37 57 5 88 -31 32 -101 35 -136 6z m119 -13 c44 -44 -42 -94 -90 -51 -22 20 -22 27 -2 47 18 19 75 21 92 4z m-10 -164 c4 -39 -30 -74 -56 -57 -22 14 -19 63 5 81 27 20 48 10 51 -24z"/>
 </g>
<g id="layer105" fill="#929292" stroke="none">
 <path d="M0 250 l0 -250 240 0 240 0 0 250 0 250 -240 0 -240 0 0 -250z m295 219 c59 -16 113 -57 143 -108 39 -66 38 -157 -1 -224 -68 -116 -217 -148 -330 -70 -92 64 -122 198 -64 295 31 54 71 85 130 104 53 16 72 17 122 3z"/>
 <path d="M183 388 c-25 -12 -36 -37 -28 -60 7 -16 47 -38 70 -38 26 0 17 -37 -10 -44 -14 -4 -31 -18 -37 -31 -8 -19 -19 -25 -42 -25 l-31 -1 50 -44 49 -45 81 0 80 0 3 75 c2 64 1 75 -14 75 -14 0 -16 -9 -12 -65 4 -61 3 -64 -14 -48 -10 9 -18 30 -18 47 0 19 -8 38 -20 49 -25 21 -25 33 0 47 93 50 -11 154 -107 108z m92 -10 c27 -12 34 -45 13 -66 -26 -26 -108 -5 -108 27 0 12 24 38 40 44 23 8 27 8 55 -5z m3 -174 c6 -57 -61 -91 -74 -39 -9 35 20 77 49 73 16 -2 23 -11 25 -34z"/>
 </g>
<g id="layer106" fill="#afafaf" stroke="none">
 <path d="M0 250 l0 -250 240 0 240 0 0 250 0 250 -240 0 -240 0 0 -250z m359 193 c27 -17 58 -48 76 -77 25 -42 30 -59 30 -116 0 -57 -5 -74 -30 -116 -19 -30 -49 -60 -79 -79 -71 -43 -161 -43 -232 0 -30 19 -60 49 -79 79 -25 42 -30 59 -30 115 0 54 5 75 28 113 66 113 205 149 316 81z"/>
 <path d="M191 387 c-13 -6 -29 -20 -35 -30 -9 -15 -6 -23 17 -43 15 -13 39 -24 52 -24 33 0 22 -36 -15 -49 -15 -5 -31 -19 -35 -30 -5 -15 -15 -21 -38 -21 l-32 0 50 -45 50 -44 80 -1 80 0 2 76 c2 55 -1 74 -10 71 -8 -3 -11 -24 -9 -66 l3 -63 -24 18 c-16 13 -22 25 -19 44 2 17 -4 32 -17 44 -28 25 -26 40 4 60 25 16 34 58 17 82 -21 32 -80 43 -121 21z m106 -24 c30 -39 -45 -81 -97 -53 -47 25 -3 86 55 75 17 -3 36 -13 42 -22z m-19 -155 c5 -42 -15 -70 -46 -66 -33 4 -41 38 -17 74 22 34 59 29 63 -8z"/>
 </g>
<g id="layer107" fill="#d2d2d2" stroke="none">
 <path d="M0 250 l0 -250 240 0 240 0 0 250 0 250 -240 0 -240 0 0 -250z m336 206 c178 -83 178 -329 0 -412 -181 -84 -372 84 -315 277 26 86 126 159 219 159 26 0 66 -10 96 -24z"/>
 <path d="M193 390 c-33 -14 -45 -43 -27 -68 19 -28 39 -29 22 -2 -17 27 -1 51 43 67 29 10 31 12 9 12 -14 0 -35 -4 -47 -9z"/>
 <path d="M278 383 c7 -2 17 -14 23 -25 8 -15 7 -24 -7 -39 -9 -10 -23 -19 -29 -19 -7 0 -15 -10 -19 -23 -3 -13 -17 -29 -31 -35 -14 -7 -30 -23 -37 -36 -6 -14 -21 -26 -33 -28 -21 -3 -20 -6 21 -41 l43 -38 83 3 83 3 -37 23 c-32 20 -36 27 -32 50 4 20 0 33 -15 46 -27 25 -26 38 4 64 14 12 25 32 25 45 0 24 -28 58 -46 56 -5 0 -3 -3 4 -6z m2 -162 c13 -24 -2 -66 -27 -80 -44 -23 -73 41 -36 81 21 24 50 23 63 -1z"/>
 <path d="M348 243 c-2 -5 -1 -33 3 -63 l6 -55 1 63 c2 57 -1 74 -10 55z"/>
 </g>
<g id="layer108" fill="#f7f7f7" stroke="none">
 <path d="M0 250 l0 -250 240 0 240 0 0 250 0 250 -240 0 -240 0 0 -250z m324 216 c18 -7 50 -29 71 -47 156 -137 55 -399 -155 -399 -202 0 -306 242 -167 389 62 65 171 90 251 57z"/>
 <path d="M178 379 c-26 -14 -23 -56 5 -70 18 -9 20 -9 10 2 -18 18 -16 39 4 61 18 20 8 23 -19 7z"/>
 <path d="M293 373 c22 -26 15 -59 -14 -68 -35 -11 -41 -40 -14 -65 31 -30 31 -51 1 -87 -20 -23 -28 -26 -43 -17 -25 15 -29 67 -7 89 17 16 17 17 -2 13 -10 -2 -25 -16 -32 -31 -9 -19 -21 -27 -38 -27 -23 0 -22 -3 21 -40 45 -39 48 -40 121 -40 41 0 74 3 74 8 0 4 -14 15 -31 25 -25 14 -30 22 -25 41 4 15 -1 32 -14 49 -26 32 -25 39 5 67 31 29 32 61 3 86 l-23 19 18 -22z"/>
 <path d="M353 190 c0 -36 2 -50 4 -32 2 17 2 47 0 65 -2 17 -4 3 -4 -33z"/>
 </g>

</svg>